<?xml version="1.0" encoding="utf-8"?>
<svg width="771px" height="467px" viewBox="0 0 771 467" version="1.1" xmlns:xlink="http://www.w3.org/1999/xlink" xmlns="http://www.w3.org/2000/svg">
  <defs>
    <path d="M302.999 112.038L467.001 112.038Q467.197 112.038 467.393 112.048Q467.59 112.058 467.785 112.077Q467.98 112.096 468.175 112.125Q468.369 112.154 468.561 112.192Q468.754 112.23 468.945 112.278Q469.135 112.326 469.323 112.383Q469.511 112.44 469.696 112.506Q469.881 112.572 470.062 112.647Q470.243 112.722 470.421 112.806Q470.598 112.89 470.772 112.983Q470.945 113.076 471.113 113.176Q471.282 113.277 471.445 113.387Q471.608 113.496 471.766 113.613Q471.924 113.73 472.076 113.854Q472.227 113.979 472.373 114.111Q472.518 114.242 472.657 114.381Q472.796 114.52 472.928 114.666Q473.06 114.811 473.184 114.963Q473.309 115.115 473.426 115.272Q473.543 115.43 473.652 115.593Q473.761 115.757 473.862 115.925Q473.963 116.094 474.055 116.267Q474.148 116.44 474.232 116.617Q474.316 116.795 474.391 116.976Q474.466 117.158 474.532 117.343Q474.599 117.528 474.656 117.715Q474.713 117.903 474.76 118.094Q474.808 118.284 474.846 118.477Q474.885 118.67 474.913 118.864Q474.942 119.058 474.961 119.253Q474.981 119.449 474.99 119.645Q475 119.841 475 120.037L475 344.039Q475 344.236 474.99 344.432Q474.981 344.628 474.961 344.823Q474.942 345.019 474.913 345.213Q474.885 345.407 474.846 345.6Q474.808 345.793 474.76 345.983Q474.713 346.173 474.656 346.361Q474.599 346.549 474.532 346.734Q474.466 346.919 474.391 347.1Q474.316 347.282 474.232 347.459Q474.148 347.637 474.055 347.81Q473.963 347.983 473.862 348.152Q473.761 348.32 473.652 348.483Q473.543 348.647 473.426 348.804Q473.309 348.962 473.184 349.114Q473.06 349.266 472.928 349.411Q472.796 349.557 472.657 349.696Q472.518 349.834 472.373 349.966Q472.227 350.098 472.076 350.223Q471.924 350.347 471.766 350.464Q471.608 350.581 471.445 350.69Q471.282 350.799 471.113 350.9Q470.945 351.001 470.772 351.094Q470.598 351.186 470.421 351.27Q470.243 351.354 470.062 351.43Q469.881 351.505 469.696 351.571Q469.511 351.637 469.323 351.694Q469.135 351.751 468.945 351.799Q468.754 351.846 468.561 351.885Q468.369 351.923 468.175 351.952Q467.98 351.981 467.785 352Q467.59 352.019 467.393 352.029Q467.197 352.038 467.001 352.038L302.999 352.038Q302.803 352.038 302.607 352.029Q302.41 352.019 302.215 352Q302.02 351.981 301.825 351.952Q301.631 351.923 301.438 351.885Q301.246 351.846 301.055 351.799Q300.865 351.751 300.677 351.694Q300.489 351.637 300.304 351.571Q300.119 351.505 299.938 351.43Q299.756 351.354 299.579 351.27Q299.401 351.186 299.228 351.094Q299.055 351.001 298.887 350.9Q298.718 350.799 298.555 350.69Q298.392 350.581 298.234 350.464Q298.076 350.347 297.924 350.223Q297.773 350.098 297.627 349.966Q297.482 349.834 297.343 349.696Q297.204 349.557 297.072 349.411Q296.94 349.266 296.816 349.114Q296.691 348.962 296.574 348.804Q296.457 348.647 296.348 348.483Q296.239 348.32 296.138 348.152Q296.037 347.983 295.944 347.81Q295.852 347.637 295.768 347.459Q295.684 347.282 295.609 347.1Q295.534 346.919 295.468 346.734Q295.401 346.549 295.344 346.361Q295.287 346.173 295.24 345.983Q295.192 345.793 295.154 345.6Q295.115 345.407 295.087 345.213Q295.058 345.019 295.039 344.823Q295.019 344.628 295.01 344.432Q295 344.236 295 344.039L295 120.037Q295 119.841 295.01 119.645Q295.019 119.449 295.039 119.253Q295.058 119.058 295.087 118.864Q295.115 118.67 295.154 118.477Q295.192 118.284 295.24 118.094Q295.287 117.903 295.344 117.715Q295.401 117.528 295.467 117.343Q295.534 117.158 295.609 116.976Q295.684 116.795 295.768 116.617Q295.852 116.44 295.944 116.267Q296.037 116.094 296.138 115.925Q296.239 115.757 296.348 115.593Q296.457 115.43 296.574 115.272Q296.691 115.115 296.816 114.963Q296.94 114.811 297.072 114.666Q297.204 114.52 297.343 114.381Q297.482 114.242 297.627 114.111Q297.773 113.979 297.924 113.854Q298.076 113.73 298.234 113.613Q298.392 113.496 298.555 113.387Q298.718 113.277 298.887 113.176Q299.055 113.076 299.228 112.983Q299.401 112.89 299.579 112.806Q299.756 112.722 299.938 112.647Q300.119 112.572 300.304 112.506Q300.489 112.44 300.677 112.383Q300.865 112.326 301.055 112.278Q301.246 112.23 301.438 112.192Q301.631 112.154 301.825 112.125Q302.02 112.096 302.215 112.077Q302.41 112.058 302.607 112.048Q302.803 112.038 302.999 112.038Z" id="path_1" />
  </defs>
  <path d="M194.689 19.0522L253.185 107.649Q253.338 107.88 253.474 108.121Q253.61 108.363 253.729 108.612Q253.849 108.862 253.95 109.12Q254.052 109.377 254.136 109.641Q254.219 109.905 254.284 110.174Q254.349 110.443 254.396 110.716Q254.442 110.989 254.47 111.265Q254.497 111.54 254.505 111.817Q254.514 112.094 254.503 112.37Q254.492 112.647 254.462 112.922Q254.432 113.198 254.383 113.47Q254.334 113.743 254.267 114.011Q254.199 114.279 254.113 114.543Q254.027 114.806 253.923 115.062Q253.819 115.319 253.697 115.568Q253.576 115.816 253.437 116.056Q253.299 116.296 253.144 116.526Q252.99 116.755 252.819 116.974Q252.649 117.192 252.464 117.398Q252.279 117.604 252.081 117.797Q251.882 117.99 251.671 118.168Q251.459 118.347 251.236 118.511Q251.012 118.674 250.778 118.822Q250.544 118.97 250.3 119.101Q250.056 119.232 249.804 119.346Q249.552 119.46 249.292 119.556Q249.033 119.653 248.767 119.731Q248.501 119.809 248.231 119.868Q247.96 119.928 247.687 119.969Q247.413 120.009 247.137 120.031Q246.861 120.053 246.584 120.055Q246.307 120.058 246.031 120.041L140.055 113.68Q139.36 113.639 138.67 113.557Q137.979 113.475 137.294 113.353Q136.609 113.232 135.932 113.071Q135.256 112.909 134.589 112.709Q133.923 112.509 133.27 112.271Q132.616 112.032 131.977 111.757Q131.339 111.481 130.717 111.168Q130.096 110.856 129.493 110.508Q128.891 110.16 128.31 109.778Q127.728 109.396 127.17 108.981Q126.612 108.566 126.079 108.119Q125.546 107.672 125.039 107.195Q124.533 106.718 124.055 106.213Q123.577 105.708 123.129 105.175Q122.681 104.643 122.265 104.086Q121.849 103.528 121.465 102.948L54.1538 1L176.099 8.31949Q176.793 8.36117 177.484 8.443Q178.175 8.52483 178.86 8.64654Q179.545 8.76824 180.221 8.92942Q180.898 9.09059 181.564 9.2907Q182.231 9.4908 182.884 9.72915Q183.538 9.96751 184.176 10.2433Q184.815 10.5191 185.437 10.8315Q186.058 11.1438 186.661 11.4916Q187.263 11.8394 187.844 12.2216Q188.426 12.6037 188.984 13.0189Q189.542 13.434 190.075 13.8808Q190.608 14.3276 191.115 14.8045Q191.621 15.2815 192.099 15.7869Q192.577 16.2924 193.025 16.8247Q193.473 17.357 193.889 17.9143Q194.305 18.4717 194.689 19.0522ZM114.175 132.814L94.4697 115.341Q94.2093 115.11 93.9239 114.91Q93.6386 114.711 93.332 114.546Q93.0255 114.381 92.702 114.253Q92.3784 114.125 92.0422 114.035Q91.706 113.944 91.3617 113.894Q91.0173 113.843 90.6694 113.833Q90.3215 113.822 89.9747 113.852Q89.6279 113.882 89.2869 113.952L59.3654 120.075L82.2009 140.324Q82.4629 140.557 82.7501 140.757Q83.0374 140.957 83.346 141.123Q83.6547 141.288 83.9804 141.417Q84.3062 141.545 84.6447 141.635Q84.9832 141.724 85.3299 141.774Q85.6765 141.824 86.0266 141.833Q86.3766 141.842 86.7254 141.81Q87.0741 141.778 87.4168 141.706L113.26 136.266Q113.395 136.237 113.525 136.19Q113.655 136.144 113.778 136.079Q113.9 136.015 114.012 135.935Q114.125 135.854 114.225 135.759Q114.325 135.664 114.411 135.556Q114.497 135.448 114.568 135.329Q114.638 135.21 114.692 135.083Q114.745 134.955 114.781 134.821Q114.816 134.688 114.833 134.551Q114.849 134.414 114.847 134.275Q114.845 134.137 114.823 134.001Q114.802 133.864 114.762 133.732Q114.722 133.6 114.664 133.474Q114.607 133.348 114.532 133.232Q114.458 133.116 114.368 133.011Q114.278 132.906 114.175 132.814ZM131.733 177.405L226.691 224.884Q226.939 225.008 227.177 225.148Q227.416 225.289 227.644 225.446Q227.872 225.603 228.089 225.775Q228.306 225.947 228.51 226.134Q228.714 226.321 228.905 226.521Q229.096 226.721 229.273 226.935Q229.45 227.148 229.611 227.373Q229.772 227.598 229.918 227.833Q230.064 228.069 230.193 228.314Q230.321 228.559 230.433 228.812Q230.545 229.065 230.639 229.326Q230.733 229.586 230.808 229.853Q230.884 230.119 230.941 230.39Q230.998 230.661 231.036 230.935Q231.074 231.209 231.094 231.485Q231.113 231.762 231.113 232.038Q231.113 232.315 231.094 232.592Q231.074 232.868 231.036 233.142Q230.998 233.416 230.941 233.687Q230.884 233.958 230.808 234.224Q230.733 234.491 230.639 234.751Q230.545 235.012 230.433 235.265Q230.321 235.518 230.193 235.763Q230.064 236.008 229.918 236.244Q229.772 236.479 229.611 236.704Q229.45 236.929 229.273 237.142Q229.096 237.355 228.905 237.556Q228.714 237.756 228.51 237.943Q228.306 238.13 228.089 238.302Q227.872 238.474 227.644 238.631Q227.416 238.788 227.177 238.929Q226.939 239.069 226.691 239.193L131.733 286.672Q131.11 286.983 130.471 287.258Q129.832 287.532 129.178 287.769Q128.524 288.006 127.857 288.205Q127.191 288.404 126.514 288.564Q125.837 288.724 125.152 288.844Q124.467 288.964 123.776 289.045Q123.085 289.125 122.39 289.165Q121.696 289.206 121 289.206Q120.304 289.206 119.61 289.165Q118.915 289.125 118.224 289.045Q117.533 288.964 116.848 288.844Q116.163 288.724 115.486 288.564Q114.809 288.404 114.142 288.205Q113.476 288.006 112.822 287.769Q112.168 287.532 111.529 287.258Q110.89 286.983 110.267 286.672L1 232.038L110.267 177.405Q110.89 177.094 111.529 176.819Q112.168 176.545 112.822 176.308Q113.476 176.071 114.143 175.872Q114.809 175.673 115.486 175.513Q116.163 175.353 116.848 175.233Q117.534 175.113 118.224 175.032Q118.915 174.952 119.61 174.911Q120.304 174.871 121 174.871Q121.696 174.871 122.39 174.911Q123.085 174.952 123.776 175.032Q124.467 175.113 125.152 175.233Q125.837 175.353 126.514 175.513Q127.191 175.673 127.858 175.872Q128.524 176.071 129.178 176.308Q129.832 176.545 130.471 176.819Q131.11 177.094 131.733 177.405ZM95.222 348.736Q94.9616 348.967 94.6762 349.166Q94.3908 349.366 94.0843 349.531Q93.7778 349.696 93.4543 349.824Q93.1307 349.952 92.7945 350.042Q92.4583 350.132 92.1139 350.183Q91.7696 350.234 91.4217 350.244Q91.0738 350.254 90.727 350.225Q90.3802 350.195 90.0392 350.125L60.1177 344.002L82.9531 323.753Q83.2152 323.52 83.5024 323.32Q83.7897 323.12 84.0983 322.954Q84.4069 322.789 84.7327 322.66Q85.0585 322.532 85.397 322.442Q85.7355 322.352 86.0821 322.303Q86.4288 322.253 86.7789 322.244Q87.1289 322.235 87.4777 322.267Q87.8264 322.299 88.1691 322.371L114.012 327.811Q114.148 327.84 114.278 327.886Q114.408 327.933 114.53 327.997Q114.652 328.062 114.765 328.142Q114.877 328.223 114.977 328.318Q115.077 328.413 115.164 328.521Q115.25 328.629 115.32 328.748Q115.391 328.867 115.444 328.994Q115.498 329.122 115.533 329.255Q115.568 329.389 115.585 329.526Q115.602 329.663 115.599 329.801Q115.597 329.94 115.576 330.076Q115.554 330.213 115.514 330.345Q115.474 330.477 115.417 330.603Q115.359 330.728 115.284 330.845Q115.21 330.961 115.12 331.066Q115.03 331.171 114.927 331.263L95.222 348.736ZM258.185 357.351L199.689 445.948Q199.305 446.528 198.889 447.086Q198.473 447.643 198.025 448.175Q197.577 448.708 197.099 449.213Q196.621 449.719 196.115 450.195Q195.608 450.672 195.075 451.119Q194.542 451.566 193.984 451.981Q193.426 452.396 192.844 452.778Q192.263 453.161 191.661 453.508Q191.058 453.856 190.437 454.168Q189.815 454.481 189.176 454.757Q188.538 455.032 187.884 455.271Q187.231 455.509 186.565 455.709Q185.898 455.909 185.222 456.071Q184.545 456.232 183.86 456.353Q183.175 456.475 182.484 456.557Q181.793 456.639 181.099 456.68L59.1539 464L126.465 362.052Q126.849 361.472 127.265 360.914Q127.681 360.357 128.129 359.825Q128.577 359.292 129.055 358.787Q129.533 358.281 130.039 357.805Q130.546 357.328 131.079 356.881Q131.612 356.434 132.17 356.019Q132.728 355.604 133.31 355.222Q133.891 354.839 134.493 354.492Q135.096 354.144 135.717 353.831Q136.339 353.519 136.978 353.243Q137.616 352.967 138.27 352.729Q138.923 352.491 139.589 352.291Q140.256 352.091 140.932 351.929Q141.609 351.768 142.294 351.647Q142.979 351.525 143.67 351.443Q144.361 351.361 145.055 351.32L251.031 344.959Q251.307 344.942 251.584 344.945Q251.861 344.947 252.137 344.969Q252.413 344.99 252.687 345.031Q252.961 345.072 253.231 345.131Q253.501 345.191 253.767 345.269Q254.033 345.347 254.292 345.444Q254.552 345.54 254.804 345.654Q255.056 345.768 255.3 345.899Q255.544 346.03 255.778 346.178Q256.012 346.326 256.236 346.489Q256.459 346.653 256.671 346.832Q256.882 347.01 257.081 347.203Q257.28 347.396 257.464 347.602Q257.649 347.808 257.819 348.026Q257.99 348.245 258.144 348.474Q258.299 348.704 258.437 348.944Q258.576 349.184 258.697 349.432Q258.819 349.681 258.923 349.938Q259.027 350.194 259.113 350.457Q259.199 350.72 259.267 350.989Q259.334 351.257 259.383 351.53Q259.432 351.802 259.462 352.078Q259.492 352.353 259.503 352.63Q259.514 352.906 259.505 353.183Q259.497 353.46 259.47 353.735Q259.442 354.011 259.396 354.284Q259.35 354.557 259.284 354.826Q259.219 355.095 259.136 355.359Q259.052 355.623 258.95 355.88Q258.849 356.138 258.73 356.388Q258.61 356.637 258.474 356.879Q258.338 357.12 258.185 357.351Z" id="New-shape-Union" fill="#18C5FF" fill-rule="evenodd" stroke="#F2F2F2" stroke-width="2" />
  <path d="M575.322 446.986L516.825 358.389Q516.672 358.158 516.536 357.917Q516.4 357.676 516.28 357.426Q516.161 357.176 516.06 356.918Q515.958 356.661 515.874 356.397Q515.791 356.133 515.726 355.864Q515.66 355.595 515.614 355.322Q515.568 355.049 515.54 354.773Q515.513 354.498 515.504 354.221Q515.496 353.944 515.507 353.668Q515.518 353.391 515.548 353.116Q515.578 352.84 515.627 352.568Q515.676 352.295 515.743 352.027Q515.811 351.758 515.897 351.495Q515.983 351.232 516.087 350.976Q516.191 350.719 516.313 350.47Q516.434 350.221 516.573 349.982Q516.711 349.742 516.866 349.512Q517.02 349.283 517.191 349.064Q517.361 348.846 517.546 348.64Q517.73 348.434 517.929 348.241Q518.128 348.048 518.339 347.87Q518.551 347.691 518.774 347.527Q518.998 347.364 519.232 347.216Q519.466 347.068 519.71 346.937Q519.954 346.806 520.206 346.692Q520.458 346.578 520.718 346.482Q520.977 346.385 521.243 346.307Q521.509 346.229 521.779 346.17Q522.049 346.11 522.323 346.069Q522.597 346.029 522.873 346.007Q523.149 345.985 523.426 345.983Q523.703 345.98 523.979 345.997L629.955 352.357Q630.649 352.399 631.34 352.481Q632.031 352.563 632.716 352.684Q633.401 352.806 634.077 352.967Q634.754 353.128 635.42 353.328Q636.087 353.529 636.74 353.767Q637.394 354.005 638.032 354.281Q638.671 354.557 639.293 354.869Q639.914 355.182 640.517 355.529Q641.119 355.877 641.7 356.259Q642.282 356.642 642.84 357.057Q643.398 357.472 643.931 357.919Q644.464 358.365 644.971 358.842Q645.477 359.319 645.955 359.825Q646.433 360.33 646.881 360.862Q647.329 361.395 647.745 361.952Q648.161 362.509 648.545 363.09L715.856 465.038L593.911 457.718Q593.217 457.677 592.526 457.595Q591.835 457.513 591.15 457.391Q590.465 457.27 589.789 457.108Q589.112 456.947 588.446 456.747Q587.779 456.547 587.126 456.309Q586.472 456.07 585.834 455.795Q585.195 455.519 584.573 455.206Q583.952 454.894 583.349 454.546Q582.747 454.198 582.166 453.816Q581.585 453.434 581.026 453.019Q580.468 452.604 579.935 452.157Q579.402 451.71 578.895 451.233Q578.389 450.756 577.911 450.251Q577.433 449.746 576.985 449.213Q576.537 448.681 576.121 448.124Q575.705 447.566 575.322 446.986ZM655.835 333.224L675.54 350.698Q675.801 350.929 676.086 351.128Q676.372 351.327 676.678 351.492Q676.985 351.657 677.308 351.785Q677.632 351.914 677.968 352.004Q678.304 352.094 678.648 352.144Q678.993 352.195 679.341 352.205Q679.689 352.216 680.035 352.186Q680.382 352.156 680.723 352.086L710.645 345.963L687.809 325.714Q687.547 325.482 687.26 325.281Q686.973 325.081 686.664 324.916Q686.355 324.75 686.03 324.622Q685.704 324.493 685.365 324.403Q685.027 324.314 684.68 324.264Q684.333 324.215 683.983 324.205Q683.633 324.196 683.285 324.228Q682.936 324.26 682.593 324.332L656.75 329.773Q656.615 329.801 656.485 329.848Q656.355 329.895 656.232 329.959Q656.11 330.023 655.998 330.104Q655.885 330.184 655.785 330.279Q655.685 330.374 655.599 330.482Q655.513 330.591 655.442 330.709Q655.372 330.828 655.318 330.956Q655.265 331.083 655.229 331.217Q655.194 331.35 655.177 331.487Q655.161 331.625 655.163 331.763Q655.165 331.901 655.187 332.038Q655.208 332.174 655.248 332.306Q655.288 332.439 655.346 332.564Q655.403 332.69 655.478 332.806Q655.552 332.923 655.642 333.028Q655.732 333.133 655.835 333.224ZM638.277 288.633L543.319 241.155Q543.071 241.031 542.832 240.89Q542.594 240.749 542.366 240.593Q542.138 240.436 541.921 240.264Q541.704 240.091 541.5 239.905Q541.295 239.718 541.104 239.517Q540.913 239.317 540.737 239.104Q540.56 238.891 540.399 238.666Q540.237 238.441 540.091 238.205Q539.946 237.97 539.817 237.725Q539.688 237.48 539.576 237.226Q539.465 236.973 539.371 236.713Q539.277 236.452 539.201 236.186Q539.126 235.92 539.069 235.649Q539.012 235.378 538.973 235.104Q538.935 234.829 538.916 234.553Q538.897 234.277 538.897 234Q538.897 233.723 538.916 233.447Q538.935 233.171 538.973 232.897Q539.012 232.622 539.069 232.351Q539.126 232.081 539.201 231.814Q539.277 231.548 539.371 231.287Q539.465 231.027 539.576 230.774Q539.688 230.52 539.817 230.275Q539.946 230.03 540.091 229.795Q540.237 229.559 540.399 229.334Q540.56 229.109 540.737 228.896Q540.913 228.683 541.104 228.483Q541.295 228.282 541.5 228.095Q541.704 227.909 541.921 227.736Q542.138 227.564 542.366 227.407Q542.594 227.251 542.832 227.11Q543.071 226.969 543.319 226.846L638.277 179.366Q638.899 179.055 639.538 178.781Q640.177 178.506 640.831 178.269Q641.485 178.032 642.152 177.833Q642.818 177.634 643.495 177.474Q644.172 177.315 644.858 177.194Q645.543 177.074 646.234 176.994Q646.925 176.913 647.619 176.873Q648.314 176.832 649.009 176.832Q649.705 176.832 650.399 176.873Q651.094 176.913 651.785 176.993Q652.476 177.074 653.161 177.194Q653.846 177.315 654.523 177.474Q655.2 177.634 655.867 177.833Q656.533 178.032 657.188 178.269Q657.841 178.506 658.481 178.78Q659.12 179.055 659.742 179.366L769.01 233.999L659.742 288.633Q659.12 288.945 658.481 289.219Q657.842 289.494 657.188 289.731Q656.534 289.968 655.867 290.166Q655.201 290.365 654.524 290.525Q653.846 290.685 653.161 290.805Q652.476 290.926 651.785 291.006Q651.094 291.086 650.4 291.127Q649.705 291.167 649.01 291.167Q648.314 291.167 647.62 291.127Q646.925 291.086 646.234 291.006Q645.543 290.926 644.858 290.805Q644.173 290.685 643.496 290.525Q642.819 290.365 642.152 290.166Q641.485 289.968 640.831 289.731Q640.177 289.494 639.538 289.219Q638.899 288.945 638.277 288.633ZM674.787 117.302Q675.048 117.071 675.333 116.872Q675.618 116.673 675.925 116.508Q676.231 116.343 676.555 116.214Q676.879 116.086 677.215 115.996Q677.551 115.906 677.895 115.855Q678.24 115.805 678.588 115.794Q678.936 115.784 679.282 115.814Q679.629 115.844 679.97 115.913L709.892 122.036L687.056 142.286Q686.794 142.518 686.507 142.718Q686.22 142.918 685.911 143.084Q685.602 143.249 685.277 143.378Q684.951 143.506 684.612 143.596Q684.274 143.686 683.927 143.735Q683.581 143.785 683.23 143.794Q682.88 143.803 682.532 143.771Q682.183 143.74 681.84 143.667L655.997 138.227Q655.862 138.199 655.732 138.152Q655.602 138.105 655.479 138.041Q655.357 137.977 655.245 137.896Q655.132 137.816 655.032 137.72Q654.932 137.625 654.846 137.517Q654.76 137.409 654.689 137.29Q654.619 137.171 654.565 137.044Q654.512 136.917 654.476 136.783Q654.441 136.649 654.424 136.512Q654.408 136.375 654.41 136.237Q654.412 136.099 654.434 135.962Q654.455 135.826 654.495 135.693Q654.535 135.561 654.593 135.436Q654.651 135.31 654.725 135.194Q654.799 135.077 654.889 134.972Q654.979 134.867 655.082 134.775L674.787 117.302ZM511.824 108.688L570.321 20.0907Q570.704 19.5102 571.12 18.9528Q571.536 18.3955 571.984 17.8632Q572.432 17.3309 572.91 16.8254Q573.388 16.32 573.894 15.843Q574.401 15.3661 574.934 14.9193Q575.467 14.4725 576.026 14.0574Q576.584 13.6422 577.165 13.2601Q577.746 12.8779 578.349 12.5301Q578.951 12.1823 579.573 11.8699Q580.194 11.5576 580.833 11.2818Q581.471 11.006 582.125 10.7676Q582.778 10.5293 583.445 10.3292Q584.111 10.129 584.788 9.96787Q585.464 9.80669 586.149 9.68498Q586.834 9.56327 587.525 9.48144Q588.216 9.39961 588.91 9.35793L710.855 2.03804L643.544 103.986Q643.161 104.567 642.745 105.124Q642.328 105.681 641.88 106.214Q641.433 106.746 640.955 107.251Q640.477 107.757 639.97 108.234Q639.464 108.711 638.931 109.157Q638.398 109.604 637.839 110.019Q637.281 110.435 636.7 110.817Q636.119 111.199 635.516 111.547Q634.914 111.894 634.292 112.207Q633.671 112.519 633.032 112.795Q632.393 113.071 631.74 113.309Q631.086 113.547 630.42 113.748Q629.754 113.948 629.077 114.109Q628.4 114.27 627.716 114.392Q627.031 114.513 626.34 114.595Q625.649 114.677 624.955 114.719L518.979 121.08Q518.702 121.097 518.426 121.094Q518.149 121.092 517.873 121.07Q517.597 121.048 517.323 121.007Q517.049 120.967 516.779 120.907Q516.508 120.848 516.243 120.77Q515.977 120.691 515.717 120.595Q515.458 120.499 515.206 120.385Q514.953 120.271 514.709 120.14Q514.466 120.008 514.231 119.861Q513.997 119.713 513.774 119.549Q513.55 119.386 513.339 119.207Q513.127 119.029 512.929 118.836Q512.73 118.643 512.545 118.437Q512.36 118.231 512.19 118.012Q512.02 117.794 511.865 117.564Q511.711 117.335 511.572 117.095Q511.434 116.855 511.312 116.606Q511.191 116.358 511.087 116.101Q510.983 115.845 510.897 115.581Q510.811 115.318 510.743 115.05Q510.675 114.781 510.626 114.509Q510.577 114.236 510.547 113.961Q510.518 113.686 510.507 113.409Q510.496 113.133 510.504 112.856Q510.512 112.579 510.54 112.304Q510.567 112.028 510.614 111.755Q510.66 111.482 510.725 111.213Q510.79 110.944 510.874 110.68Q510.957 110.416 511.059 110.159Q511.161 109.901 511.28 109.651Q511.399 109.401 511.535 109.16Q511.672 108.919 511.824 108.688Z" id="New-shape-Union-2" fill="#18C5FF" fill-rule="evenodd" stroke="#F2F2F2" stroke-width="2" />
  <g id="Rectangle">
    <use stroke="none" fill="#D3D3D3" xlink:href="#path_1" fill-rule="evenodd" />
    <use xlink:href="#path_1" fill="none" stroke="#FFFFFF" stroke-width="8" />
    <use xlink:href="#path_1" fill="none" stroke="#000000" stroke-width="2" />
  </g>
  <path d="M320.999 220.038L449.001 220.038Q449.148 220.038 449.295 220.046Q449.442 220.053 449.589 220.067Q449.736 220.082 449.881 220.103Q450.027 220.125 450.171 220.154Q450.316 220.182 450.459 220.218Q450.601 220.254 450.742 220.297Q450.883 220.34 451.022 220.389Q451.161 220.439 451.297 220.495Q451.433 220.551 451.566 220.614Q451.699 220.677 451.829 220.747Q451.959 220.816 452.085 220.892Q452.211 220.968 452.334 221.049Q452.456 221.131 452.575 221.219Q452.693 221.307 452.807 221.4Q452.921 221.494 453.03 221.592Q453.139 221.691 453.243 221.796Q453.347 221.9 453.446 222.009Q453.545 222.118 453.638 222.232Q453.732 222.346 453.819 222.464Q453.907 222.582 453.989 222.705Q454.071 222.827 454.146 222.953Q454.222 223.08 454.292 223.21Q454.361 223.339 454.424 223.473Q454.487 223.606 454.543 223.742Q454.6 223.878 454.649 224.016Q454.699 224.155 454.742 224.296Q454.784 224.437 454.82 224.58Q454.856 224.723 454.885 224.867Q454.913 225.012 454.935 225.157Q454.957 225.303 454.971 225.449Q454.986 225.596 454.993 225.743Q455 225.89 455 226.037L455 226.039Q455 226.187 454.993 226.334Q454.986 226.481 454.971 226.627Q454.957 226.774 454.935 226.92Q454.913 227.065 454.885 227.21Q454.856 227.354 454.82 227.497Q454.784 227.64 454.742 227.781Q454.699 227.922 454.649 228.06Q454.6 228.199 454.543 228.335Q454.487 228.471 454.424 228.604Q454.361 228.737 454.292 228.867Q454.222 228.997 454.146 229.124Q454.071 229.25 453.989 229.372Q453.907 229.495 453.819 229.613Q453.732 229.731 453.638 229.845Q453.545 229.959 453.446 230.068Q453.347 230.177 453.243 230.281Q453.139 230.386 453.03 230.484Q452.921 230.583 452.807 230.677Q452.693 230.77 452.574 230.858Q452.456 230.946 452.334 231.027Q452.211 231.109 452.085 231.185Q451.959 231.261 451.829 231.33Q451.699 231.4 451.566 231.462Q451.433 231.525 451.297 231.582Q451.161 231.638 451.022 231.688Q450.883 231.737 450.742 231.78Q450.601 231.823 450.459 231.859Q450.316 231.894 450.171 231.923Q450.027 231.952 449.881 231.974Q449.736 231.995 449.589 232.01Q449.442 232.024 449.295 232.031Q449.148 232.038 449.001 232.038L320.999 232.038Q320.852 232.038 320.705 232.031Q320.558 232.024 320.411 232.01Q320.264 231.995 320.119 231.974Q319.973 231.952 319.829 231.923Q319.684 231.894 319.541 231.859Q319.398 231.823 319.258 231.78Q319.117 231.737 318.978 231.688Q318.839 231.638 318.703 231.582Q318.567 231.525 318.434 231.462Q318.301 231.4 318.171 231.33Q318.041 231.261 317.915 231.185Q317.789 231.109 317.666 231.027Q317.544 230.946 317.425 230.858Q317.307 230.77 317.193 230.677Q317.079 230.583 316.97 230.484Q316.861 230.386 316.757 230.281Q316.653 230.177 316.554 230.068Q316.455 229.959 316.362 229.845Q316.268 229.731 316.181 229.613Q316.093 229.495 316.011 229.372Q315.929 229.25 315.853 229.124Q315.778 228.997 315.708 228.867Q315.639 228.737 315.576 228.604Q315.513 228.471 315.457 228.335Q315.4 228.199 315.351 228.06Q315.301 227.922 315.258 227.781Q315.216 227.64 315.18 227.497Q315.144 227.354 315.115 227.21Q315.086 227.065 315.065 226.92Q315.043 226.774 315.029 226.627Q315.014 226.481 315.007 226.334Q315 226.187 315 226.039L315 226.037Q315 225.89 315.007 225.743Q315.014 225.596 315.029 225.449Q315.043 225.303 315.065 225.157Q315.086 225.012 315.115 224.867Q315.144 224.723 315.18 224.58Q315.216 224.437 315.258 224.296Q315.301 224.155 315.351 224.016Q315.4 223.878 315.457 223.742Q315.513 223.606 315.576 223.473Q315.639 223.339 315.708 223.21Q315.778 223.08 315.853 222.953Q315.929 222.827 316.011 222.705Q316.093 222.582 316.181 222.464Q316.268 222.346 316.362 222.232Q316.455 222.118 316.554 222.009Q316.653 221.9 316.757 221.796Q316.861 221.691 316.97 221.592Q317.079 221.494 317.193 221.4Q317.307 221.307 317.425 221.219Q317.544 221.131 317.666 221.049Q317.789 220.968 317.915 220.892Q318.041 220.816 318.171 220.747Q318.301 220.677 318.434 220.614Q318.567 220.551 318.703 220.495Q318.839 220.439 318.978 220.389Q319.117 220.34 319.258 220.297Q319.398 220.254 319.541 220.218Q319.684 220.182 319.829 220.154Q319.973 220.125 320.119 220.103Q320.264 220.082 320.411 220.067Q320.558 220.053 320.705 220.046Q320.852 220.038 320.999 220.038Z" id="Rectangle-2" fill="#B5B5B5" fill-rule="evenodd" stroke="none" />
  <path d="M320.999 292.038L449.001 292.038Q449.148 292.038 449.295 292.046Q449.442 292.053 449.589 292.067Q449.736 292.082 449.881 292.103Q450.027 292.125 450.171 292.154Q450.316 292.182 450.459 292.218Q450.601 292.254 450.742 292.297Q450.883 292.34 451.022 292.389Q451.161 292.439 451.297 292.495Q451.433 292.551 451.566 292.614Q451.699 292.677 451.829 292.747Q451.959 292.816 452.085 292.892Q452.211 292.968 452.334 293.049Q452.456 293.131 452.575 293.219Q452.693 293.307 452.807 293.4Q452.921 293.494 453.03 293.592Q453.139 293.691 453.243 293.796Q453.347 293.9 453.446 294.009Q453.545 294.118 453.638 294.232Q453.732 294.346 453.819 294.464Q453.907 294.582 453.989 294.705Q454.071 294.827 454.146 294.953Q454.222 295.08 454.292 295.21Q454.361 295.339 454.424 295.473Q454.487 295.606 454.543 295.742Q454.6 295.878 454.649 296.016Q454.699 296.155 454.742 296.296Q454.784 296.437 454.82 296.58Q454.856 296.723 454.885 296.867Q454.913 297.012 454.935 297.157Q454.957 297.303 454.971 297.449Q454.986 297.596 454.993 297.743Q455 297.89 455 298.037L455 298.039Q455 298.187 454.993 298.334Q454.986 298.481 454.971 298.628Q454.957 298.774 454.935 298.92Q454.913 299.065 454.885 299.21Q454.856 299.354 454.82 299.497Q454.784 299.64 454.742 299.781Q454.699 299.922 454.649 300.06Q454.6 300.199 454.543 300.335Q454.487 300.471 454.424 300.604Q454.361 300.737 454.292 300.867Q454.222 300.997 454.146 301.124Q454.071 301.25 453.989 301.372Q453.907 301.495 453.819 301.613Q453.732 301.731 453.638 301.845Q453.545 301.959 453.446 302.068Q453.347 302.177 453.243 302.281Q453.139 302.385 453.03 302.484Q452.921 302.583 452.807 302.677Q452.693 302.77 452.574 302.858Q452.456 302.946 452.334 303.027Q452.211 303.109 452.085 303.185Q451.959 303.261 451.829 303.33Q451.699 303.399 451.566 303.462Q451.433 303.525 451.297 303.582Q451.161 303.638 451.022 303.688Q450.883 303.737 450.742 303.78Q450.601 303.823 450.459 303.859Q450.316 303.894 450.171 303.923Q450.027 303.952 449.881 303.974Q449.736 303.995 449.589 304.01Q449.442 304.024 449.295 304.031Q449.148 304.038 449.001 304.038L320.999 304.038Q320.852 304.038 320.705 304.031Q320.558 304.024 320.411 304.01Q320.264 303.995 320.119 303.974Q319.973 303.952 319.829 303.923Q319.684 303.894 319.541 303.859Q319.398 303.823 319.258 303.78Q319.117 303.737 318.978 303.688Q318.839 303.638 318.703 303.582Q318.567 303.525 318.434 303.462Q318.301 303.399 318.171 303.33Q318.041 303.261 317.915 303.185Q317.789 303.109 317.666 303.027Q317.544 302.946 317.425 302.858Q317.307 302.77 317.193 302.677Q317.079 302.583 316.97 302.484Q316.861 302.385 316.757 302.281Q316.653 302.177 316.554 302.068Q316.455 301.959 316.362 301.845Q316.268 301.731 316.181 301.613Q316.093 301.495 316.011 301.372Q315.929 301.25 315.853 301.124Q315.778 300.997 315.708 300.867Q315.639 300.737 315.576 300.604Q315.513 300.471 315.457 300.335Q315.4 300.199 315.351 300.06Q315.301 299.922 315.258 299.781Q315.216 299.64 315.18 299.497Q315.144 299.354 315.115 299.21Q315.086 299.065 315.065 298.92Q315.043 298.774 315.029 298.628Q315.014 298.481 315.007 298.334Q315 298.187 315 298.039L315 298.037Q315 297.89 315.007 297.743Q315.014 297.596 315.029 297.449Q315.043 297.303 315.065 297.157Q315.086 297.012 315.115 296.867Q315.144 296.723 315.18 296.58Q315.216 296.437 315.258 296.296Q315.301 296.155 315.351 296.016Q315.4 295.878 315.457 295.742Q315.513 295.606 315.576 295.473Q315.639 295.339 315.708 295.21Q315.778 295.08 315.853 294.953Q315.929 294.827 316.011 294.705Q316.093 294.582 316.181 294.464Q316.268 294.346 316.362 294.232Q316.455 294.118 316.554 294.009Q316.653 293.9 316.757 293.796Q316.861 293.691 316.97 293.592Q317.079 293.494 317.193 293.4Q317.307 293.307 317.425 293.219Q317.544 293.131 317.666 293.049Q317.789 292.968 317.915 292.892Q318.041 292.816 318.171 292.747Q318.301 292.677 318.434 292.614Q318.567 292.551 318.703 292.495Q318.839 292.439 318.978 292.389Q319.117 292.34 319.258 292.297Q319.398 292.254 319.541 292.218Q319.684 292.182 319.829 292.154Q319.973 292.125 320.119 292.103Q320.264 292.082 320.411 292.067Q320.558 292.053 320.705 292.046Q320.852 292.038 320.999 292.038Z" id="Rectangle-5" fill="#B5B5B5" fill-rule="evenodd" stroke="none" />
  <path d="M320.999 316.038L449.001 316.038Q449.148 316.038 449.295 316.046Q449.442 316.053 449.589 316.067Q449.736 316.082 449.881 316.103Q450.027 316.125 450.171 316.154Q450.316 316.182 450.459 316.218Q450.601 316.254 450.742 316.297Q450.883 316.34 451.022 316.389Q451.161 316.439 451.297 316.495Q451.433 316.551 451.566 316.614Q451.699 316.677 451.829 316.747Q451.959 316.816 452.085 316.892Q452.211 316.968 452.334 317.049Q452.456 317.131 452.575 317.219Q452.693 317.307 452.807 317.4Q452.921 317.494 453.03 317.592Q453.139 317.691 453.243 317.796Q453.347 317.9 453.446 318.009Q453.545 318.118 453.638 318.232Q453.732 318.346 453.819 318.464Q453.907 318.582 453.989 318.705Q454.071 318.827 454.146 318.953Q454.222 319.08 454.292 319.21Q454.361 319.339 454.424 319.473Q454.487 319.606 454.543 319.742Q454.6 319.878 454.649 320.016Q454.699 320.155 454.742 320.296Q454.784 320.437 454.82 320.58Q454.856 320.723 454.885 320.867Q454.913 321.012 454.935 321.157Q454.957 321.303 454.971 321.449Q454.986 321.596 454.993 321.743Q455 321.89 455 322.037L455 322.039Q455 322.187 454.993 322.334Q454.986 322.481 454.971 322.628Q454.957 322.774 454.935 322.92Q454.913 323.065 454.885 323.21Q454.856 323.354 454.82 323.497Q454.784 323.64 454.742 323.781Q454.699 323.922 454.649 324.06Q454.6 324.199 454.543 324.335Q454.487 324.471 454.424 324.604Q454.361 324.737 454.292 324.867Q454.222 324.997 454.146 325.124Q454.071 325.25 453.989 325.372Q453.907 325.495 453.819 325.613Q453.732 325.731 453.638 325.845Q453.545 325.959 453.446 326.068Q453.347 326.177 453.243 326.281Q453.139 326.385 453.03 326.484Q452.921 326.583 452.807 326.677Q452.693 326.77 452.574 326.858Q452.456 326.946 452.334 327.027Q452.211 327.109 452.085 327.185Q451.959 327.261 451.829 327.33Q451.699 327.4 451.566 327.462Q451.433 327.525 451.297 327.582Q451.161 327.638 451.022 327.688Q450.883 327.737 450.742 327.78Q450.601 327.823 450.459 327.859Q450.316 327.894 450.171 327.923Q450.027 327.952 449.881 327.973Q449.736 327.995 449.589 328.01Q449.442 328.024 449.295 328.031Q449.148 328.038 449.001 328.038L320.999 328.038Q320.852 328.038 320.705 328.031Q320.558 328.024 320.411 328.01Q320.264 327.995 320.119 327.973Q319.973 327.952 319.829 327.923Q319.684 327.894 319.541 327.859Q319.398 327.823 319.258 327.78Q319.117 327.737 318.978 327.688Q318.839 327.638 318.703 327.582Q318.567 327.525 318.434 327.462Q318.301 327.399 318.171 327.33Q318.041 327.261 317.915 327.185Q317.789 327.109 317.666 327.027Q317.544 326.946 317.425 326.858Q317.307 326.77 317.193 326.677Q317.079 326.583 316.97 326.484Q316.861 326.385 316.757 326.281Q316.653 326.177 316.554 326.068Q316.455 325.959 316.362 325.845Q316.268 325.731 316.181 325.613Q316.093 325.495 316.011 325.372Q315.929 325.25 315.853 325.124Q315.778 324.997 315.708 324.867Q315.639 324.737 315.576 324.604Q315.513 324.471 315.457 324.335Q315.4 324.199 315.351 324.06Q315.301 323.922 315.258 323.781Q315.216 323.64 315.18 323.497Q315.144 323.354 315.115 323.21Q315.086 323.065 315.065 322.92Q315.043 322.774 315.029 322.628Q315.014 322.481 315.007 322.334Q315 322.187 315 322.039L315 322.037Q315 321.89 315.007 321.743Q315.014 321.596 315.029 321.449Q315.043 321.303 315.065 321.157Q315.086 321.012 315.115 320.867Q315.144 320.723 315.18 320.58Q315.216 320.437 315.258 320.296Q315.301 320.155 315.351 320.016Q315.4 319.878 315.457 319.742Q315.513 319.606 315.576 319.473Q315.639 319.339 315.708 319.209Q315.778 319.08 315.853 318.953Q315.929 318.827 316.011 318.705Q316.093 318.582 316.181 318.464Q316.268 318.346 316.362 318.232Q316.455 318.118 316.554 318.009Q316.653 317.9 316.757 317.796Q316.861 317.691 316.97 317.592Q317.079 317.494 317.193 317.4Q317.307 317.307 317.425 317.219Q317.544 317.131 317.666 317.049Q317.789 316.968 317.915 316.892Q318.041 316.816 318.171 316.747Q318.301 316.677 318.434 316.614Q318.567 316.551 318.703 316.495Q318.839 316.439 318.978 316.389Q319.117 316.34 319.258 316.297Q319.398 316.254 319.541 316.218Q319.684 316.182 319.829 316.154Q319.973 316.125 320.119 316.103Q320.264 316.082 320.411 316.067Q320.558 316.053 320.705 316.046Q320.852 316.038 320.999 316.038Z" id="Rectangle-6" fill="#B5B5B5" fill-rule="evenodd" stroke="none" />
  <path d="M320.999 244.038L449.001 244.038Q449.148 244.038 449.295 244.046Q449.442 244.053 449.589 244.067Q449.736 244.082 449.881 244.103Q450.027 244.125 450.171 244.154Q450.316 244.182 450.459 244.218Q450.601 244.254 450.742 244.297Q450.883 244.34 451.022 244.389Q451.161 244.439 451.297 244.495Q451.433 244.551 451.566 244.614Q451.699 244.677 451.829 244.747Q451.959 244.816 452.085 244.892Q452.211 244.968 452.334 245.049Q452.456 245.131 452.575 245.219Q452.693 245.307 452.807 245.4Q452.921 245.494 453.03 245.592Q453.139 245.691 453.243 245.796Q453.347 245.9 453.446 246.009Q453.545 246.118 453.638 246.232Q453.732 246.346 453.819 246.464Q453.907 246.582 453.989 246.705Q454.071 246.827 454.146 246.953Q454.222 247.08 454.292 247.21Q454.361 247.339 454.424 247.473Q454.487 247.606 454.543 247.742Q454.6 247.878 454.649 248.016Q454.699 248.155 454.742 248.296Q454.784 248.437 454.82 248.58Q454.856 248.723 454.885 248.867Q454.913 249.012 454.935 249.157Q454.957 249.303 454.971 249.449Q454.986 249.596 454.993 249.743Q455 249.89 455 250.037L455 250.039Q455 250.187 454.993 250.334Q454.986 250.481 454.971 250.627Q454.957 250.774 454.935 250.92Q454.913 251.065 454.885 251.21Q454.856 251.354 454.82 251.497Q454.784 251.64 454.742 251.781Q454.699 251.922 454.649 252.06Q454.6 252.199 454.543 252.335Q454.487 252.471 454.424 252.604Q454.361 252.737 454.292 252.867Q454.222 252.997 454.146 253.124Q454.071 253.25 453.989 253.372Q453.907 253.495 453.819 253.613Q453.732 253.731 453.638 253.845Q453.545 253.959 453.446 254.068Q453.347 254.177 453.243 254.281Q453.139 254.385 453.03 254.484Q452.921 254.583 452.807 254.677Q452.693 254.77 452.574 254.858Q452.456 254.946 452.334 255.027Q452.211 255.109 452.085 255.185Q451.959 255.261 451.829 255.33Q451.699 255.399 451.566 255.462Q451.433 255.525 451.297 255.582Q451.161 255.638 451.022 255.688Q450.883 255.737 450.742 255.78Q450.601 255.823 450.459 255.859Q450.316 255.894 450.171 255.923Q450.027 255.952 449.881 255.973Q449.736 255.995 449.589 256.01Q449.442 256.024 449.295 256.031Q449.148 256.038 449.001 256.038L320.999 256.038Q320.852 256.038 320.705 256.031Q320.558 256.024 320.411 256.01Q320.264 255.995 320.119 255.974Q319.973 255.952 319.829 255.923Q319.684 255.894 319.541 255.859Q319.398 255.823 319.258 255.78Q319.117 255.737 318.978 255.688Q318.839 255.638 318.703 255.582Q318.567 255.525 318.434 255.462Q318.301 255.399 318.171 255.33Q318.041 255.261 317.915 255.185Q317.789 255.109 317.666 255.027Q317.544 254.946 317.425 254.858Q317.307 254.77 317.193 254.677Q317.079 254.583 316.97 254.484Q316.861 254.385 316.757 254.281Q316.653 254.177 316.554 254.068Q316.455 253.959 316.362 253.845Q316.268 253.731 316.181 253.613Q316.093 253.495 316.011 253.372Q315.929 253.25 315.853 253.124Q315.778 252.997 315.708 252.867Q315.639 252.737 315.576 252.604Q315.513 252.471 315.457 252.335Q315.4 252.199 315.351 252.06Q315.301 251.922 315.258 251.781Q315.216 251.64 315.18 251.497Q315.144 251.354 315.115 251.21Q315.086 251.065 315.065 250.92Q315.043 250.774 315.029 250.627Q315.014 250.481 315.007 250.334Q315 250.187 315 250.039L315 250.037Q315 249.89 315.007 249.743Q315.014 249.596 315.029 249.449Q315.043 249.303 315.065 249.157Q315.086 249.012 315.115 248.867Q315.144 248.723 315.18 248.58Q315.216 248.437 315.258 248.296Q315.301 248.155 315.351 248.016Q315.4 247.878 315.457 247.742Q315.513 247.606 315.576 247.473Q315.639 247.339 315.708 247.21Q315.778 247.08 315.853 246.953Q315.929 246.827 316.011 246.705Q316.093 246.582 316.181 246.464Q316.268 246.346 316.362 246.232Q316.455 246.118 316.554 246.009Q316.653 245.9 316.757 245.796Q316.861 245.691 316.97 245.592Q317.079 245.494 317.193 245.4Q317.307 245.307 317.425 245.219Q317.544 245.131 317.666 245.049Q317.789 244.968 317.915 244.892Q318.041 244.816 318.171 244.747Q318.301 244.677 318.434 244.614Q318.567 244.551 318.703 244.495Q318.839 244.439 318.978 244.389Q319.117 244.34 319.258 244.297Q319.398 244.254 319.541 244.218Q319.684 244.182 319.829 244.154Q319.973 244.125 320.119 244.103Q320.264 244.082 320.411 244.067Q320.558 244.053 320.705 244.046Q320.852 244.038 320.999 244.038Z" id="Rectangle-3" fill="#B5B5B5" fill-rule="evenodd" stroke="none" />
  <path d="M320.999 268.038L449.001 268.038Q449.148 268.038 449.295 268.046Q449.442 268.053 449.589 268.067Q449.736 268.082 449.881 268.103Q450.027 268.125 450.171 268.154Q450.316 268.182 450.459 268.218Q450.601 268.254 450.742 268.297Q450.883 268.34 451.022 268.389Q451.161 268.439 451.297 268.495Q451.433 268.551 451.566 268.614Q451.699 268.677 451.829 268.747Q451.959 268.816 452.085 268.892Q452.211 268.968 452.334 269.049Q452.456 269.131 452.575 269.219Q452.693 269.307 452.807 269.4Q452.921 269.494 453.03 269.592Q453.139 269.691 453.243 269.796Q453.347 269.9 453.446 270.009Q453.545 270.118 453.638 270.232Q453.732 270.346 453.819 270.464Q453.907 270.582 453.989 270.705Q454.071 270.827 454.146 270.953Q454.222 271.08 454.292 271.21Q454.361 271.339 454.424 271.473Q454.487 271.606 454.543 271.742Q454.6 271.878 454.649 272.016Q454.699 272.155 454.742 272.296Q454.784 272.437 454.82 272.58Q454.856 272.723 454.885 272.867Q454.913 273.012 454.935 273.157Q454.957 273.303 454.971 273.449Q454.986 273.596 454.993 273.743Q455 273.89 455 274.037L455 274.039Q455 274.187 454.993 274.334Q454.986 274.481 454.971 274.628Q454.957 274.774 454.935 274.92Q454.913 275.065 454.885 275.21Q454.856 275.354 454.82 275.497Q454.784 275.64 454.742 275.781Q454.699 275.922 454.649 276.06Q454.6 276.199 454.543 276.335Q454.487 276.471 454.424 276.604Q454.361 276.737 454.292 276.867Q454.222 276.997 454.146 277.124Q454.071 277.25 453.989 277.372Q453.907 277.495 453.819 277.613Q453.732 277.731 453.638 277.845Q453.545 277.959 453.446 278.068Q453.347 278.177 453.243 278.281Q453.139 278.386 453.03 278.484Q452.921 278.583 452.807 278.677Q452.693 278.77 452.574 278.858Q452.456 278.946 452.334 279.027Q452.211 279.109 452.085 279.185Q451.959 279.261 451.829 279.33Q451.699 279.4 451.566 279.462Q451.433 279.525 451.297 279.582Q451.161 279.638 451.022 279.688Q450.883 279.737 450.742 279.78Q450.601 279.823 450.459 279.859Q450.316 279.894 450.171 279.923Q450.027 279.952 449.881 279.974Q449.736 279.995 449.589 280.01Q449.442 280.024 449.295 280.031Q449.148 280.038 449.001 280.038L320.999 280.038Q320.852 280.038 320.705 280.031Q320.558 280.024 320.411 280.01Q320.264 279.995 320.119 279.974Q319.973 279.952 319.829 279.923Q319.684 279.894 319.541 279.859Q319.398 279.823 319.258 279.78Q319.117 279.737 318.978 279.688Q318.839 279.638 318.703 279.582Q318.567 279.525 318.434 279.462Q318.301 279.4 318.171 279.33Q318.041 279.261 317.915 279.185Q317.789 279.109 317.666 279.027Q317.544 278.946 317.425 278.858Q317.307 278.77 317.193 278.677Q317.079 278.583 316.97 278.484Q316.861 278.386 316.757 278.281Q316.653 278.177 316.554 278.068Q316.455 277.959 316.362 277.845Q316.268 277.731 316.181 277.613Q316.093 277.495 316.011 277.372Q315.929 277.25 315.853 277.124Q315.778 276.997 315.708 276.867Q315.639 276.737 315.576 276.604Q315.513 276.471 315.457 276.335Q315.4 276.199 315.351 276.06Q315.301 275.922 315.258 275.781Q315.216 275.64 315.18 275.497Q315.144 275.354 315.115 275.21Q315.086 275.065 315.065 274.92Q315.043 274.774 315.029 274.628Q315.014 274.481 315.007 274.334Q315 274.187 315 274.039L315 274.037Q315 273.89 315.007 273.743Q315.014 273.596 315.029 273.449Q315.043 273.303 315.065 273.157Q315.086 273.012 315.115 272.867Q315.144 272.723 315.18 272.58Q315.216 272.437 315.258 272.296Q315.301 272.155 315.351 272.016Q315.4 271.878 315.457 271.742Q315.513 271.606 315.576 271.473Q315.639 271.339 315.708 271.21Q315.778 271.08 315.853 270.953Q315.929 270.827 316.011 270.705Q316.093 270.582 316.181 270.464Q316.268 270.346 316.362 270.232Q316.455 270.118 316.554 270.009Q316.653 269.9 316.757 269.796Q316.861 269.691 316.97 269.592Q317.079 269.494 317.193 269.4Q317.307 269.307 317.425 269.219Q317.544 269.131 317.666 269.049Q317.789 268.968 317.915 268.892Q318.041 268.816 318.171 268.747Q318.301 268.677 318.434 268.614Q318.567 268.551 318.703 268.495Q318.839 268.439 318.978 268.389Q319.117 268.34 319.258 268.297Q319.398 268.254 319.541 268.218Q319.684 268.182 319.829 268.154Q319.973 268.125 320.119 268.103Q320.264 268.082 320.411 268.067Q320.558 268.053 320.705 268.046Q320.852 268.038 320.999 268.038Z" id="Rectangle-4" fill="#B5B5B5" fill-rule="evenodd" stroke="none" />
  <g id="Group" transform="translate(355 136.03847)">
    <path d="M31 -177.962L56.9808 -162.962L56.9808 -132.962L31.0001 -117.962L5.01929 -132.961L5.01918 -162.961L31 -177.962Z" id="Polygon" fill="#B5B5B5" fill-rule="evenodd" stroke="none" />
    <g id="9" fill="#D3D3D3" transform="translate(7.5 7.5)">
      <path d="M16.8457 26.9473L21.5801 26.9473Q21.5801 28.2715 21.6152 28.6172Q21.6504 28.9629 21.9023 29.1973Q22.1543 29.4316 22.5879 29.4316Q22.9512 29.4316 23.1855 29.209Q23.4199 28.9863 23.4492 28.6348Q23.4785 28.2832 23.4785 27.2168L23.4785 24.1934Q23.127 24.9551 22.4238 25.3359Q21.7207 25.7168 20.6777 25.7168Q19.377 25.7168 18.3809 25.0137Q17.3848 24.3105 17.1152 23.3262Q16.8457 22.3418 16.8457 20.666L16.8457 19.1543Q16.8457 17.1621 17.0039 16.1895Q17.1621 15.2168 17.8184 14.3906Q18.4746 13.5645 19.6348 13.1074Q20.7949 12.6504 22.3301 12.6504Q24.2285 12.6504 25.4473 13.1777Q26.666 13.7051 27.334 14.6953Q28.002 15.6855 28.1074 16.7754Q28.2129 17.8652 28.2129 20.9941L28.2129 23.6309Q28.2129 27.0176 28.1191 28.1602Q28.0254 29.3027 27.3047 30.3223Q26.584 31.3418 25.3535 31.8516Q24.123 32.3613 22.5059 32.3613Q20.502 32.3613 19.2305 31.7168Q17.959 31.0723 17.4023 29.9004Q16.8457 28.7285 16.8457 26.9473ZM21.5801 21.0293Q21.5801 22.2246 21.8906 22.5059Q22.2012 22.7871 22.5293 22.7871Q23.0215 22.7871 23.25 22.4297Q23.4785 22.0723 23.4785 21.0293L23.4785 17.5957Q23.4785 16.3418 23.2617 15.9551Q23.0449 15.5684 22.541 15.5684Q22.2363 15.5684 21.9082 15.8672Q21.5801 16.166 21.5801 17.4785L21.5801 21.0293Z" />
    </g>
  </g>
</svg>