<?xml version="1.0" encoding="utf-8"?>
<svg width="188px" height="248px" viewBox="0 0 188 248" version="1.1" xmlns:xlink="http://www.w3.org/1999/xlink" xmlns="http://www.w3.org/2000/svg">
  <defs>
    <path d="M7.999 0L172.001 0Q172.197 0 172.393 0.00963514Q172.59 0.0192703 172.785 0.0385174Q172.98 0.0577644 173.175 0.0865771Q173.369 0.11539 173.562 0.153699Q173.754 0.192007 173.945 0.23972Q174.135 0.287433 174.323 0.344434Q174.511 0.401436 174.696 0.467589Q174.881 0.533742 175.062 0.608888Q175.243 0.684033 175.421 0.76799Q175.599 0.851946 175.772 0.944512Q175.945 1.03708 176.113 1.13803Q176.282 1.23898 176.445 1.34807Q176.608 1.45717 176.766 1.57414Q176.924 1.69112 177.076 1.81569Q177.227 1.94026 177.373 2.07213Q177.518 2.204 177.657 2.34285Q177.796 2.4817 177.928 2.6272Q178.06 2.7727 178.184 2.92449Q178.309 3.07628 178.426 3.234Q178.543 3.39172 178.652 3.55499Q178.761 3.71826 178.862 3.88669Q178.963 4.05512 179.055 4.2283Q179.148 4.40148 179.232 4.57899Q179.316 4.7565 179.391 4.93791Q179.466 5.11933 179.532 5.30422Q179.599 5.4891 179.656 5.67701Q179.713 5.86492 179.76 6.0554Q179.808 6.24588 179.846 6.43847Q179.885 6.63106 179.913 6.8253Q179.942 7.01954 179.961 7.21496Q179.981 7.41038 179.99 7.60651Q180 7.80264 180 7.999L180 232.001Q180 232.197 179.99 232.393Q179.981 232.59 179.961 232.785Q179.942 232.98 179.913 233.175Q179.885 233.369 179.846 233.562Q179.808 233.754 179.76 233.945Q179.713 234.135 179.656 234.323Q179.599 234.511 179.532 234.696Q179.466 234.881 179.391 235.062Q179.316 235.243 179.232 235.421Q179.148 235.598 179.055 235.772Q178.963 235.945 178.862 236.113Q178.761 236.282 178.652 236.445Q178.543 236.608 178.426 236.766Q178.309 236.924 178.184 237.075Q178.06 237.227 177.928 237.373Q177.796 237.518 177.657 237.657Q177.518 237.796 177.373 237.928Q177.227 238.06 177.076 238.184Q176.924 238.309 176.766 238.426Q176.608 238.543 176.445 238.652Q176.282 238.761 176.113 238.862Q175.945 238.963 175.772 239.055Q175.599 239.148 175.421 239.232Q175.243 239.316 175.062 239.391Q174.881 239.466 174.696 239.532Q174.511 239.599 174.323 239.656Q174.135 239.713 173.945 239.76Q173.754 239.808 173.562 239.846Q173.369 239.885 173.175 239.913Q172.98 239.942 172.785 239.961Q172.59 239.981 172.393 239.99Q172.197 240 172.001 240L7.999 240Q7.80264 240 7.60651 239.99Q7.41038 239.981 7.21496 239.961Q7.01954 239.942 6.8253 239.913Q6.63106 239.885 6.43847 239.846Q6.24588 239.808 6.0554 239.76Q5.86492 239.713 5.67701 239.656Q5.4891 239.599 5.30422 239.532Q5.11933 239.466 4.93791 239.391Q4.7565 239.316 4.57899 239.232Q4.40148 239.148 4.2283 239.055Q4.05512 238.963 3.88669 238.862Q3.71826 238.761 3.55499 238.652Q3.39172 238.543 3.234 238.426Q3.07628 238.309 2.92449 238.184Q2.7727 238.06 2.6272 237.928Q2.4817 237.796 2.34285 237.657Q2.204 237.518 2.07213 237.373Q1.94026 237.227 1.81569 237.075Q1.69112 236.924 1.57414 236.766Q1.45717 236.608 1.34807 236.445Q1.23898 236.282 1.13803 236.113Q1.03708 235.945 0.944512 235.772Q0.851946 235.599 0.76799 235.421Q0.684033 235.243 0.608888 235.062Q0.533742 234.881 0.467589 234.696Q0.401436 234.511 0.344434 234.323Q0.287433 234.135 0.23972 233.945Q0.192007 233.754 0.153699 233.562Q0.11539 233.369 0.0865771 233.175Q0.0577644 232.98 0.0385174 232.785Q0.0192703 232.59 0.00963514 232.393Q0 232.197 0 232.001L0 7.999Q0 7.80264 0.00963514 7.60651Q0.0192703 7.41038 0.0385174 7.21496Q0.0577644 7.01954 0.0865771 6.8253Q0.11539 6.63106 0.153699 6.43847Q0.192007 6.24588 0.23972 6.0554Q0.287433 5.86492 0.344434 5.67701Q0.401436 5.4891 0.467589 5.30422Q0.533742 5.11933 0.608888 4.93791Q0.684033 4.7565 0.76799 4.57899Q0.851946 4.40148 0.944512 4.2283Q1.03708 4.05512 1.13803 3.88669Q1.23898 3.71826 1.34807 3.55499Q1.45717 3.39172 1.57414 3.234Q1.69112 3.07628 1.81569 2.92449Q1.94026 2.7727 2.07213 2.6272Q2.204 2.4817 2.34285 2.34285Q2.4817 2.204 2.6272 2.07213Q2.7727 1.94026 2.92449 1.81569Q3.07628 1.69112 3.234 1.57414Q3.39172 1.45717 3.55499 1.34807Q3.71826 1.23898 3.88669 1.13803Q4.05512 1.03708 4.2283 0.944512Q4.40148 0.851946 4.57899 0.76799Q4.7565 0.684033 4.93791 0.608888Q5.11933 0.533742 5.30422 0.467589Q5.4891 0.401436 5.67701 0.344434Q5.86492 0.287433 6.0554 0.23972Q6.24588 0.192007 6.43847 0.153699Q6.63106 0.11539 6.8253 0.0865771Q7.01954 0.0577644 7.21496 0.0385174Q7.41038 0.0192703 7.60651 0.00963514Q7.80264 0 7.999 0L7.999 0Z" id="path_1" />
  </defs>
  <g id="Group-2" transform="translate(4 4)">
    <g id="Rectangle">
      <use stroke="none" fill="#D3D3D3" xlink:href="#path_1" fill-rule="evenodd" />
      <use xlink:href="#path_1" fill="none" stroke="#FFFFFF" stroke-width="8" />
      <use xlink:href="#path_1" fill="none" stroke="#000000" stroke-width="2" />
    </g>
    <path d="M25.999 108L154.001 108Q154.148 108 154.295 108.007Q154.442 108.014 154.589 108.029Q154.736 108.043 154.881 108.065Q155.027 108.087 155.171 108.115Q155.316 108.144 155.459 108.18Q155.601 108.216 155.742 108.258Q155.883 108.301 156.022 108.351Q156.161 108.4 156.297 108.457Q156.433 108.513 156.566 108.576Q156.699 108.639 156.829 108.708Q156.959 108.778 157.085 108.853Q157.211 108.929 157.334 109.011Q157.456 109.093 157.575 109.181Q157.693 109.268 157.807 109.362Q157.921 109.455 158.03 109.554Q158.139 109.653 158.243 109.757Q158.347 109.861 158.446 109.97Q158.545 110.079 158.638 110.193Q158.732 110.307 158.819 110.425Q158.907 110.544 158.989 110.666Q159.071 110.789 159.146 110.915Q159.222 111.041 159.292 111.171Q159.361 111.301 159.424 111.434Q159.487 111.567 159.543 111.703Q159.6 111.839 159.649 111.978Q159.699 112.117 159.742 112.258Q159.784 112.398 159.82 112.541Q159.856 112.684 159.885 112.829Q159.913 112.973 159.935 113.119Q159.957 113.264 159.971 113.411Q159.986 113.558 159.993 113.705Q160 113.852 160 113.999L160 114.001Q160 114.148 159.993 114.295Q159.986 114.442 159.971 114.589Q159.957 114.736 159.935 114.881Q159.913 115.027 159.885 115.171Q159.856 115.316 159.82 115.459Q159.784 115.601 159.742 115.742Q159.699 115.883 159.649 116.022Q159.6 116.161 159.543 116.297Q159.487 116.433 159.424 116.566Q159.361 116.699 159.292 116.829Q159.222 116.959 159.146 117.085Q159.071 117.211 158.989 117.334Q158.907 117.456 158.819 117.575Q158.732 117.693 158.638 117.807Q158.545 117.921 158.446 118.03Q158.347 118.139 158.243 118.243Q158.139 118.347 158.03 118.446Q157.921 118.545 157.807 118.638Q157.693 118.732 157.575 118.819Q157.456 118.907 157.334 118.989Q157.211 119.071 157.085 119.146Q156.959 119.222 156.829 119.292Q156.699 119.361 156.566 119.424Q156.433 119.487 156.297 119.543Q156.161 119.6 156.022 119.649Q155.883 119.699 155.742 119.742Q155.601 119.784 155.459 119.82Q155.316 119.856 155.171 119.885Q155.027 119.913 154.881 119.935Q154.736 119.957 154.589 119.971Q154.442 119.986 154.295 119.993Q154.148 120 154.001 120L25.999 120Q25.8517 120 25.7046 119.993Q25.5576 119.986 25.411 119.971Q25.2644 119.957 25.1188 119.935Q24.9731 119.913 24.8287 119.885Q24.6842 119.856 24.5414 119.82Q24.3985 119.784 24.2576 119.742Q24.1167 119.699 23.978 119.649Q23.8393 119.6 23.7033 119.543Q23.5672 119.487 23.4341 119.424Q23.301 119.361 23.1711 119.292Q23.0412 119.222 22.9149 119.146Q22.7886 119.071 22.6661 118.989Q22.5437 118.907 22.4254 118.819Q22.3071 118.732 22.1933 118.638Q22.0794 118.545 21.9703 118.446Q21.8612 118.347 21.7571 118.243Q21.6529 118.139 21.554 118.03Q21.4551 117.921 21.3617 117.807Q21.2683 117.693 21.1806 117.575Q21.0928 117.456 21.011 117.334Q20.9292 117.211 20.8535 117.085Q20.7778 116.959 20.7084 116.829Q20.6389 116.699 20.576 116.566Q20.513 116.433 20.4566 116.297Q20.4003 116.161 20.3507 116.022Q20.3011 115.883 20.2583 115.742Q20.2156 115.601 20.1798 115.459Q20.144 115.316 20.1153 115.171Q20.0865 115.027 20.0649 114.881Q20.0433 114.736 20.0289 114.589Q20.0145 114.442 20.0072 114.295Q20 114.148 20 114.001L20 113.999Q20 113.852 20.0072 113.705Q20.0145 113.558 20.0289 113.411Q20.0433 113.264 20.0649 113.119Q20.0865 112.973 20.1153 112.829Q20.144 112.684 20.1798 112.541Q20.2156 112.398 20.2583 112.258Q20.3011 112.117 20.3507 111.978Q20.4003 111.839 20.4566 111.703Q20.513 111.567 20.576 111.434Q20.6389 111.301 20.7084 111.171Q20.7778 111.041 20.8535 110.915Q20.9292 110.789 21.011 110.666Q21.0928 110.544 21.1806 110.425Q21.2683 110.307 21.3617 110.193Q21.4551 110.079 21.554 109.97Q21.6529 109.861 21.7571 109.757Q21.8612 109.653 21.9703 109.554Q22.0794 109.455 22.1933 109.362Q22.3071 109.268 22.4254 109.181Q22.5437 109.093 22.6661 109.011Q22.7886 108.929 22.9149 108.853Q23.0412 108.778 23.1711 108.708Q23.301 108.639 23.4341 108.576Q23.5672 108.513 23.7033 108.457Q23.8393 108.4 23.978 108.351Q24.1167 108.301 24.2576 108.258Q24.3985 108.216 24.5414 108.18Q24.6842 108.144 24.8287 108.115Q24.9731 108.087 25.1188 108.065Q25.2644 108.043 25.411 108.029Q25.5576 108.014 25.7046 108.007Q25.8517 108 25.999 108Z" id="Rectangle-2" fill="#B5B5B5" fill-rule="evenodd" stroke="none" />
    <path d="M25.999 180L154.001 180Q154.148 180 154.295 180.007Q154.442 180.014 154.589 180.029Q154.736 180.043 154.881 180.065Q155.027 180.087 155.171 180.115Q155.316 180.144 155.459 180.18Q155.601 180.216 155.742 180.258Q155.883 180.301 156.022 180.351Q156.161 180.4 156.297 180.457Q156.433 180.513 156.566 180.576Q156.699 180.639 156.829 180.708Q156.959 180.778 157.085 180.853Q157.211 180.929 157.334 181.011Q157.456 181.093 157.575 181.181Q157.693 181.268 157.807 181.362Q157.921 181.455 158.03 181.554Q158.139 181.653 158.243 181.757Q158.347 181.861 158.446 181.97Q158.545 182.079 158.638 182.193Q158.732 182.307 158.819 182.425Q158.907 182.544 158.989 182.666Q159.071 182.789 159.146 182.915Q159.222 183.041 159.292 183.171Q159.361 183.301 159.424 183.434Q159.487 183.567 159.543 183.703Q159.6 183.839 159.649 183.978Q159.699 184.117 159.742 184.258Q159.784 184.398 159.82 184.541Q159.856 184.684 159.885 184.829Q159.913 184.973 159.935 185.119Q159.957 185.264 159.971 185.411Q159.986 185.558 159.993 185.705Q160 185.852 160 185.999L160 186.001Q160 186.148 159.993 186.295Q159.986 186.442 159.971 186.589Q159.957 186.736 159.935 186.881Q159.913 187.027 159.885 187.171Q159.856 187.316 159.82 187.459Q159.784 187.601 159.742 187.742Q159.699 187.883 159.649 188.022Q159.6 188.161 159.543 188.297Q159.487 188.433 159.424 188.566Q159.361 188.699 159.292 188.829Q159.222 188.959 159.146 189.085Q159.071 189.211 158.989 189.334Q158.907 189.456 158.819 189.575Q158.732 189.693 158.638 189.807Q158.545 189.921 158.446 190.03Q158.347 190.139 158.243 190.243Q158.139 190.347 158.03 190.446Q157.921 190.545 157.807 190.638Q157.693 190.732 157.575 190.819Q157.456 190.907 157.334 190.989Q157.211 191.071 157.085 191.146Q156.959 191.222 156.829 191.292Q156.699 191.361 156.566 191.424Q156.433 191.487 156.297 191.543Q156.161 191.6 156.022 191.649Q155.883 191.699 155.742 191.742Q155.601 191.784 155.459 191.82Q155.316 191.856 155.171 191.885Q155.027 191.913 154.881 191.935Q154.736 191.957 154.589 191.971Q154.442 191.986 154.295 191.993Q154.148 192 154.001 192L25.999 192Q25.8517 192 25.7046 191.993Q25.5576 191.986 25.411 191.971Q25.2644 191.957 25.1188 191.935Q24.9731 191.913 24.8287 191.885Q24.6842 191.856 24.5414 191.82Q24.3985 191.784 24.2576 191.742Q24.1167 191.699 23.978 191.649Q23.8393 191.6 23.7033 191.543Q23.5672 191.487 23.4341 191.424Q23.301 191.361 23.1711 191.292Q23.0412 191.222 22.9149 191.146Q22.7886 191.071 22.6661 190.989Q22.5437 190.907 22.4254 190.819Q22.3071 190.732 22.1933 190.638Q22.0794 190.545 21.9703 190.446Q21.8612 190.347 21.7571 190.243Q21.6529 190.139 21.554 190.03Q21.4551 189.921 21.3617 189.807Q21.2683 189.693 21.1806 189.575Q21.0928 189.456 21.011 189.334Q20.9292 189.211 20.8535 189.085Q20.7778 188.959 20.7084 188.829Q20.6389 188.699 20.576 188.566Q20.513 188.433 20.4566 188.297Q20.4003 188.161 20.3507 188.022Q20.3011 187.883 20.2583 187.742Q20.2156 187.601 20.1798 187.459Q20.144 187.316 20.1153 187.171Q20.0865 187.027 20.0649 186.881Q20.0433 186.736 20.0289 186.589Q20.0145 186.442 20.0072 186.295Q20 186.148 20 186.001L20 185.999Q20 185.852 20.0072 185.705Q20.0145 185.558 20.0289 185.411Q20.0433 185.264 20.0649 185.119Q20.0865 184.973 20.1153 184.829Q20.144 184.684 20.1798 184.541Q20.2156 184.398 20.2583 184.258Q20.3011 184.117 20.3507 183.978Q20.4003 183.839 20.4566 183.703Q20.513 183.567 20.576 183.434Q20.6389 183.301 20.7084 183.171Q20.7778 183.041 20.8535 182.915Q20.9292 182.789 21.011 182.666Q21.0928 182.544 21.1806 182.425Q21.2683 182.307 21.3617 182.193Q21.4551 182.079 21.554 181.97Q21.6529 181.861 21.7571 181.757Q21.8612 181.653 21.9703 181.554Q22.0794 181.455 22.1933 181.362Q22.3071 181.268 22.4254 181.181Q22.5437 181.093 22.6661 181.011Q22.7886 180.929 22.9149 180.853Q23.0412 180.778 23.1711 180.708Q23.301 180.639 23.4341 180.576Q23.5672 180.513 23.7033 180.457Q23.8393 180.4 23.978 180.351Q24.1167 180.301 24.2576 180.258Q24.3985 180.216 24.5414 180.18Q24.6842 180.144 24.8287 180.115Q24.9731 180.087 25.1188 180.065Q25.2644 180.043 25.411 180.029Q25.5576 180.014 25.7046 180.007Q25.8517 180 25.999 180Z" id="Rectangle-5" fill="#B5B5B5" fill-rule="evenodd" stroke="none" />
    <path d="M25.999 204L154.001 204Q154.148 204 154.295 204.007Q154.442 204.014 154.589 204.029Q154.736 204.043 154.881 204.065Q155.027 204.087 155.171 204.115Q155.316 204.144 155.459 204.18Q155.601 204.216 155.742 204.258Q155.883 204.301 156.022 204.351Q156.161 204.4 156.297 204.457Q156.433 204.513 156.566 204.576Q156.699 204.639 156.829 204.708Q156.959 204.778 157.085 204.853Q157.211 204.929 157.334 205.011Q157.456 205.093 157.575 205.181Q157.693 205.268 157.807 205.362Q157.921 205.455 158.03 205.554Q158.139 205.653 158.243 205.757Q158.347 205.861 158.446 205.97Q158.545 206.079 158.638 206.193Q158.732 206.307 158.819 206.425Q158.907 206.544 158.989 206.666Q159.071 206.789 159.146 206.915Q159.222 207.041 159.292 207.171Q159.361 207.301 159.424 207.434Q159.487 207.567 159.543 207.703Q159.6 207.839 159.649 207.978Q159.699 208.117 159.742 208.258Q159.784 208.398 159.82 208.541Q159.856 208.684 159.885 208.829Q159.913 208.973 159.935 209.119Q159.957 209.264 159.971 209.411Q159.986 209.558 159.993 209.705Q160 209.852 160 209.999L160 210.001Q160 210.148 159.993 210.295Q159.986 210.442 159.971 210.589Q159.957 210.736 159.935 210.881Q159.913 211.027 159.885 211.171Q159.856 211.316 159.82 211.459Q159.784 211.602 159.742 211.742Q159.699 211.883 159.649 212.022Q159.6 212.161 159.543 212.297Q159.487 212.433 159.424 212.566Q159.361 212.699 159.292 212.829Q159.222 212.959 159.146 213.085Q159.071 213.211 158.989 213.334Q158.907 213.456 158.819 213.575Q158.732 213.693 158.638 213.807Q158.545 213.921 158.446 214.03Q158.347 214.139 158.243 214.243Q158.139 214.347 158.03 214.446Q157.921 214.545 157.807 214.638Q157.693 214.732 157.575 214.819Q157.456 214.907 157.334 214.989Q157.211 215.071 157.085 215.146Q156.959 215.222 156.829 215.292Q156.699 215.361 156.566 215.424Q156.433 215.487 156.297 215.543Q156.161 215.6 156.022 215.649Q155.883 215.699 155.742 215.742Q155.601 215.784 155.459 215.82Q155.316 215.856 155.171 215.885Q155.027 215.913 154.881 215.935Q154.736 215.957 154.589 215.971Q154.442 215.986 154.295 215.993Q154.148 216 154.001 216L25.999 216Q25.8517 216 25.7046 215.993Q25.5576 215.986 25.411 215.971Q25.2644 215.957 25.1188 215.935Q24.9731 215.913 24.8287 215.885Q24.6842 215.856 24.5414 215.82Q24.3985 215.784 24.2576 215.742Q24.1167 215.699 23.978 215.649Q23.8393 215.6 23.7033 215.543Q23.5672 215.487 23.4341 215.424Q23.301 215.361 23.1711 215.292Q23.0412 215.222 22.9149 215.146Q22.7886 215.071 22.6661 214.989Q22.5437 214.907 22.4254 214.819Q22.3071 214.732 22.1933 214.638Q22.0794 214.545 21.9703 214.446Q21.8612 214.347 21.7571 214.243Q21.6529 214.139 21.554 214.03Q21.4551 213.921 21.3617 213.807Q21.2683 213.693 21.1806 213.575Q21.0928 213.456 21.011 213.334Q20.9292 213.211 20.8535 213.085Q20.7778 212.959 20.7084 212.829Q20.6389 212.699 20.576 212.566Q20.513 212.433 20.4566 212.297Q20.4003 212.161 20.3507 212.022Q20.3011 211.883 20.2583 211.742Q20.2156 211.601 20.1798 211.459Q20.144 211.316 20.1153 211.171Q20.0865 211.027 20.0649 210.881Q20.0433 210.736 20.0289 210.589Q20.0145 210.442 20.0072 210.295Q20 210.148 20 210.001L20 209.999Q20 209.852 20.0072 209.705Q20.0145 209.558 20.0289 209.411Q20.0433 209.264 20.0649 209.119Q20.0865 208.973 20.1153 208.829Q20.144 208.684 20.1798 208.541Q20.2156 208.398 20.2583 208.258Q20.3011 208.117 20.3507 207.978Q20.4003 207.839 20.4566 207.703Q20.513 207.567 20.576 207.434Q20.6389 207.301 20.7084 207.171Q20.7778 207.041 20.8535 206.915Q20.9292 206.789 21.011 206.666Q21.0928 206.544 21.1806 206.425Q21.2683 206.307 21.3617 206.193Q21.4551 206.079 21.554 205.97Q21.6529 205.861 21.7571 205.757Q21.8612 205.653 21.9703 205.554Q22.0794 205.455 22.1933 205.362Q22.3071 205.268 22.4254 205.181Q22.5437 205.093 22.6661 205.011Q22.7886 204.929 22.9149 204.853Q23.0412 204.778 23.1711 204.708Q23.301 204.639 23.4341 204.576Q23.5672 204.513 23.7033 204.457Q23.8393 204.4 23.978 204.351Q24.1167 204.301 24.2576 204.258Q24.3985 204.216 24.5414 204.18Q24.6842 204.144 24.8287 204.115Q24.9731 204.087 25.1188 204.065Q25.2644 204.043 25.411 204.029Q25.5576 204.014 25.7046 204.007Q25.8517 204 25.999 204Z" id="Rectangle-6" fill="#B5B5B5" fill-rule="evenodd" stroke="none" />
    <path d="M25.999 132L154.001 132Q154.148 132 154.295 132.007Q154.442 132.014 154.589 132.029Q154.736 132.043 154.881 132.065Q155.027 132.087 155.171 132.115Q155.316 132.144 155.459 132.18Q155.601 132.216 155.742 132.258Q155.883 132.301 156.022 132.351Q156.161 132.4 156.297 132.457Q156.433 132.513 156.566 132.576Q156.699 132.639 156.829 132.708Q156.959 132.778 157.085 132.853Q157.211 132.929 157.334 133.011Q157.456 133.093 157.575 133.181Q157.693 133.268 157.807 133.362Q157.921 133.455 158.03 133.554Q158.139 133.653 158.243 133.757Q158.347 133.861 158.446 133.97Q158.545 134.079 158.638 134.193Q158.732 134.307 158.819 134.425Q158.907 134.544 158.989 134.666Q159.071 134.789 159.146 134.915Q159.222 135.041 159.292 135.171Q159.361 135.301 159.424 135.434Q159.487 135.567 159.543 135.703Q159.6 135.839 159.649 135.978Q159.699 136.117 159.742 136.258Q159.784 136.398 159.82 136.541Q159.856 136.684 159.885 136.829Q159.913 136.973 159.935 137.119Q159.957 137.264 159.971 137.411Q159.986 137.558 159.993 137.705Q160 137.852 160 137.999L160 138.001Q160 138.148 159.993 138.295Q159.986 138.442 159.971 138.589Q159.957 138.736 159.935 138.881Q159.913 139.027 159.885 139.171Q159.856 139.316 159.82 139.459Q159.784 139.602 159.742 139.742Q159.699 139.883 159.649 140.022Q159.6 140.161 159.543 140.297Q159.487 140.433 159.424 140.566Q159.361 140.699 159.292 140.829Q159.222 140.959 159.146 141.085Q159.071 141.211 158.989 141.334Q158.907 141.456 158.819 141.575Q158.732 141.693 158.638 141.807Q158.545 141.921 158.446 142.03Q158.347 142.139 158.243 142.243Q158.139 142.347 158.03 142.446Q157.921 142.545 157.807 142.638Q157.693 142.732 157.575 142.819Q157.456 142.907 157.334 142.989Q157.211 143.071 157.085 143.146Q156.959 143.222 156.829 143.292Q156.699 143.361 156.566 143.424Q156.433 143.487 156.297 143.543Q156.161 143.6 156.022 143.649Q155.883 143.699 155.742 143.742Q155.601 143.784 155.459 143.82Q155.316 143.856 155.171 143.885Q155.027 143.913 154.881 143.935Q154.736 143.957 154.589 143.971Q154.442 143.986 154.295 143.993Q154.148 144 154.001 144L25.999 144Q25.8517 144 25.7046 143.993Q25.5576 143.986 25.411 143.971Q25.2644 143.957 25.1188 143.935Q24.9731 143.913 24.8287 143.885Q24.6842 143.856 24.5414 143.82Q24.3985 143.784 24.2576 143.742Q24.1167 143.699 23.978 143.649Q23.8393 143.6 23.7033 143.543Q23.5672 143.487 23.4341 143.424Q23.301 143.361 23.1711 143.292Q23.0412 143.222 22.9149 143.147Q22.7886 143.071 22.6661 142.989Q22.5437 142.907 22.4254 142.819Q22.3071 142.732 22.1933 142.638Q22.0794 142.545 21.9703 142.446Q21.8612 142.347 21.7571 142.243Q21.6529 142.139 21.554 142.03Q21.4551 141.921 21.3617 141.807Q21.2683 141.693 21.1806 141.575Q21.0928 141.456 21.011 141.334Q20.9292 141.211 20.8535 141.085Q20.7778 140.959 20.7084 140.829Q20.6389 140.699 20.576 140.566Q20.513 140.433 20.4566 140.297Q20.4003 140.161 20.3507 140.022Q20.3011 139.883 20.2583 139.742Q20.2156 139.602 20.1798 139.459Q20.144 139.316 20.1153 139.171Q20.0865 139.027 20.0649 138.881Q20.0433 138.736 20.0289 138.589Q20.0145 138.442 20.0072 138.295Q20 138.148 20 138.001L20 137.999Q20 137.852 20.0072 137.705Q20.0145 137.558 20.0289 137.411Q20.0433 137.264 20.0649 137.119Q20.0865 136.973 20.1153 136.829Q20.144 136.684 20.1798 136.541Q20.2156 136.398 20.2583 136.258Q20.3011 136.117 20.3507 135.978Q20.4003 135.839 20.4566 135.703Q20.513 135.567 20.576 135.434Q20.6389 135.301 20.7084 135.171Q20.7778 135.041 20.8535 134.915Q20.9292 134.789 21.011 134.666Q21.0928 134.544 21.1806 134.425Q21.2683 134.307 21.3617 134.193Q21.4551 134.079 21.554 133.97Q21.6529 133.861 21.7571 133.757Q21.8612 133.653 21.9703 133.554Q22.0794 133.455 22.1933 133.362Q22.3071 133.268 22.4254 133.181Q22.5437 133.093 22.6661 133.011Q22.7886 132.929 22.9149 132.853Q23.0412 132.778 23.1711 132.708Q23.301 132.639 23.4341 132.576Q23.5672 132.513 23.7033 132.457Q23.8393 132.4 23.978 132.351Q24.1167 132.301 24.2576 132.258Q24.3985 132.216 24.5414 132.18Q24.6842 132.144 24.8287 132.115Q24.9731 132.087 25.1188 132.065Q25.2644 132.043 25.411 132.029Q25.5576 132.014 25.7046 132.007Q25.8517 132 25.999 132Z" id="Rectangle-3" fill="#B5B5B5" fill-rule="evenodd" stroke="none" />
    <path d="M25.999 156L154.001 156Q154.148 156 154.295 156.007Q154.442 156.014 154.589 156.029Q154.736 156.043 154.881 156.065Q155.027 156.087 155.171 156.115Q155.316 156.144 155.459 156.18Q155.601 156.216 155.742 156.258Q155.883 156.301 156.022 156.351Q156.161 156.4 156.297 156.457Q156.433 156.513 156.566 156.576Q156.699 156.639 156.829 156.708Q156.959 156.778 157.085 156.853Q157.211 156.929 157.334 157.011Q157.456 157.093 157.575 157.181Q157.693 157.268 157.807 157.362Q157.921 157.455 158.03 157.554Q158.139 157.653 158.243 157.757Q158.347 157.861 158.446 157.97Q158.545 158.079 158.638 158.193Q158.732 158.307 158.819 158.425Q158.907 158.544 158.989 158.666Q159.071 158.789 159.146 158.915Q159.222 159.041 159.292 159.171Q159.361 159.301 159.424 159.434Q159.487 159.567 159.543 159.703Q159.6 159.839 159.649 159.978Q159.699 160.117 159.742 160.258Q159.784 160.399 159.82 160.541Q159.856 160.684 159.885 160.829Q159.913 160.973 159.935 161.119Q159.957 161.264 159.971 161.411Q159.986 161.558 159.993 161.705Q160 161.852 160 161.999L160 162.001Q160 162.148 159.993 162.295Q159.986 162.442 159.971 162.589Q159.957 162.736 159.935 162.881Q159.913 163.027 159.885 163.171Q159.856 163.316 159.82 163.459Q159.784 163.601 159.742 163.742Q159.699 163.883 159.649 164.022Q159.6 164.161 159.543 164.297Q159.487 164.433 159.424 164.566Q159.361 164.699 159.292 164.829Q159.222 164.959 159.146 165.085Q159.071 165.211 158.989 165.334Q158.907 165.456 158.819 165.575Q158.732 165.693 158.638 165.807Q158.545 165.921 158.446 166.03Q158.347 166.139 158.243 166.243Q158.139 166.347 158.03 166.446Q157.921 166.545 157.807 166.638Q157.693 166.732 157.575 166.819Q157.456 166.907 157.334 166.989Q157.211 167.071 157.085 167.146Q156.959 167.222 156.829 167.292Q156.699 167.361 156.566 167.424Q156.433 167.487 156.297 167.543Q156.161 167.6 156.022 167.649Q155.883 167.699 155.742 167.742Q155.601 167.784 155.459 167.82Q155.316 167.856 155.171 167.885Q155.027 167.913 154.881 167.935Q154.736 167.957 154.589 167.971Q154.442 167.986 154.295 167.993Q154.148 168 154.001 168L25.999 168Q25.8517 168 25.7046 167.993Q25.5576 167.986 25.411 167.971Q25.2644 167.957 25.1188 167.935Q24.9731 167.913 24.8287 167.885Q24.6842 167.856 24.5414 167.82Q24.3985 167.784 24.2576 167.742Q24.1167 167.699 23.978 167.649Q23.8393 167.6 23.7033 167.543Q23.5672 167.487 23.4341 167.424Q23.301 167.361 23.1711 167.292Q23.0412 167.222 22.9149 167.146Q22.7886 167.071 22.6661 166.989Q22.5437 166.907 22.4254 166.819Q22.3071 166.732 22.1933 166.638Q22.0794 166.545 21.9703 166.446Q21.8612 166.347 21.7571 166.243Q21.6529 166.139 21.554 166.03Q21.4551 165.921 21.3617 165.807Q21.2683 165.693 21.1806 165.575Q21.0928 165.456 21.011 165.334Q20.9292 165.211 20.8535 165.085Q20.7778 164.959 20.7084 164.829Q20.6389 164.699 20.576 164.566Q20.513 164.433 20.4566 164.297Q20.4003 164.161 20.3507 164.022Q20.3011 163.883 20.2583 163.742Q20.2156 163.601 20.1798 163.459Q20.144 163.316 20.1153 163.171Q20.0865 163.027 20.0649 162.881Q20.0433 162.736 20.0289 162.589Q20.0145 162.442 20.0072 162.295Q20 162.148 20 162.001L20 161.999Q20 161.852 20.0072 161.705Q20.0145 161.558 20.0289 161.411Q20.0433 161.264 20.0649 161.119Q20.0865 160.973 20.1153 160.829Q20.144 160.684 20.1798 160.541Q20.2156 160.398 20.2583 160.258Q20.3011 160.117 20.3507 159.978Q20.4003 159.839 20.4566 159.703Q20.513 159.567 20.576 159.434Q20.6389 159.301 20.7084 159.171Q20.7778 159.041 20.8535 158.915Q20.9292 158.789 21.011 158.666Q21.0928 158.544 21.1806 158.425Q21.2683 158.307 21.3617 158.193Q21.4551 158.079 21.554 157.97Q21.6529 157.861 21.7571 157.757Q21.8612 157.653 21.9703 157.554Q22.0794 157.455 22.1933 157.362Q22.3071 157.268 22.4254 157.181Q22.5437 157.093 22.6661 157.011Q22.7886 156.929 22.9149 156.853Q23.0412 156.778 23.1711 156.708Q23.301 156.639 23.4341 156.576Q23.5672 156.513 23.7033 156.457Q23.8393 156.4 23.978 156.351Q24.1167 156.301 24.2576 156.258Q24.3985 156.216 24.5414 156.18Q24.6842 156.144 24.8287 156.115Q24.9731 156.087 25.1188 156.065Q25.2644 156.043 25.411 156.029Q25.5576 156.014 25.7046 156.007Q25.8517 156 25.999 156Z" id="Rectangle-4" fill="#B5B5B5" fill-rule="evenodd" stroke="none" />
    <g id="Group" transform="translate(60 24)">
      <path d="M30 0L55.9808 15L55.9808 45L30.0001 60L4.01929 45.0001L4.01918 15.0001L30 0Z" id="Polygon" fill="#B5B5B5" fill-rule="evenodd" stroke="none" />
      <g id="9" fill="#D3D3D3" transform="translate(7.5 7.5)">
        <path d="M16.8457 26.9473L21.5801 26.9473Q21.5801 28.2715 21.6152 28.6172Q21.6504 28.9629 21.9023 29.1973Q22.1543 29.4316 22.5879 29.4316Q22.9512 29.4316 23.1855 29.209Q23.4199 28.9863 23.4492 28.6348Q23.4785 28.2832 23.4785 27.2168L23.4785 24.1934Q23.127 24.9551 22.4238 25.3359Q21.7207 25.7168 20.6777 25.7168Q19.377 25.7168 18.3809 25.0137Q17.3848 24.3105 17.1152 23.3262Q16.8457 22.3418 16.8457 20.666L16.8457 19.1543Q16.8457 17.1621 17.0039 16.1895Q17.1621 15.2168 17.8184 14.3906Q18.4746 13.5645 19.6348 13.1074Q20.7949 12.6504 22.3301 12.6504Q24.2285 12.6504 25.4473 13.1777Q26.666 13.7051 27.334 14.6953Q28.002 15.6855 28.1074 16.7754Q28.2129 17.8652 28.2129 20.9941L28.2129 23.6309Q28.2129 27.0176 28.1191 28.1602Q28.0254 29.3027 27.3047 30.3223Q26.584 31.3418 25.3535 31.8516Q24.123 32.3613 22.5059 32.3613Q20.502 32.3613 19.2305 31.7168Q17.959 31.0723 17.4023 29.9004Q16.8457 28.7285 16.8457 26.9473ZM21.5801 21.0293Q21.5801 22.2246 21.8906 22.5059Q22.2012 22.7871 22.5293 22.7871Q23.0215 22.7871 23.25 22.4297Q23.4785 22.0723 23.4785 21.0293L23.4785 17.5957Q23.4785 16.3418 23.2617 15.9551Q23.0449 15.5684 22.541 15.5684Q22.2363 15.5684 21.9082 15.8672Q21.5801 16.166 21.5801 17.4785L21.5801 21.0293Z" />
      </g>
    </g>
    <path d="M58.2018 25.9327L58.2032 25.9348Q58.3122 26.1 58.4096 26.2723Q58.507 26.4446 58.5922 26.6232Q58.6774 26.8019 58.7501 26.986Q58.8228 27.1701 58.8825 27.3587Q58.9423 27.5474 58.9889 27.7398Q59.0355 27.9322 59.0686 28.1273Q59.1018 28.3224 59.1214 28.5193Q59.141 28.7163 59.1469 28.9141Q59.1529 29.112 59.1451 29.3097Q59.1373 29.5075 59.1159 29.7043Q59.0945 29.901 59.0595 30.0958Q59.0246 30.2906 58.9762 30.4826Q58.9279 30.6745 58.8663 30.8626Q58.8048 31.0507 58.7305 31.2341Q58.6561 31.4176 58.5692 31.5954Q58.4824 31.7732 58.3834 31.9446Q58.2844 32.1161 58.1739 32.2802Q58.0633 32.4444 57.9416 32.6005Q57.82 32.7566 57.6878 32.9039Q57.5556 33.0513 57.4136 33.1891Q57.2716 33.3269 57.1203 33.4546Q56.9691 33.5823 56.8094 33.6992Q56.6497 33.8162 56.4823 33.9218Q56.3149 34.0274 56.1407 34.1211Q55.9664 34.2149 55.786 34.2964Q55.6056 34.3779 55.4201 34.4468Q55.2345 34.5156 55.0446 34.5715Q54.8547 34.6273 54.6615 34.6699Q54.4682 34.7125 54.2724 34.7416Q54.0766 34.7707 53.8793 34.7862Q53.682 34.8017 53.4841 34.8035Q53.2862 34.8054 53.0886 34.7935L53.0861 34.7934Q52.4242 34.7536 51.7657 34.6756Q51.1073 34.5976 50.4544 34.4816Q49.8015 34.3656 49.1565 34.212Q48.5114 34.0583 47.8764 33.8676Q47.2413 33.6769 46.6184 33.4497Q45.9954 33.2225 45.3867 32.9595Q44.7779 32.6966 44.1854 32.3989Q43.5929 32.1012 43.0187 31.7696Q42.4444 31.4381 41.8904 31.0739Q41.3363 30.7096 40.8042 30.3139Q40.2722 29.9181 39.7639 29.4922Q39.2557 29.0664 38.773 28.6117Q38.2903 28.1571 37.8347 27.6753Q37.3791 27.1935 36.9522 26.6861Q36.5253 26.1787 36.1285 25.6475Q35.7317 25.1162 35.3664 24.5629L29.0636 15.0168L40.4821 15.7022Q41.144 15.7419 41.8025 15.82Q42.4609 15.898 43.1138 16.014Q43.7667 16.13 44.4117 16.2836Q45.0568 16.4372 45.6918 16.628Q46.3269 16.8187 46.9498 17.0459Q47.5728 17.2731 48.1815 17.536Q48.7903 17.7989 49.3827 18.0967Q49.9752 18.3944 50.5495 18.7259Q51.1237 19.0575 51.6778 19.4217Q52.2319 19.786 52.764 20.1817Q53.296 20.5774 53.8042 21.0033Q54.3125 21.4292 54.7952 21.8838Q55.2779 22.3384 55.7335 22.8203Q56.1891 23.3021 56.616 23.8094Q57.0429 24.3168 57.4397 24.8481Q57.8365 25.3794 58.2018 25.9327ZM32.7739 34.7436Q33.0967 34.6775 33.4249 34.6492Q33.7532 34.621 34.0825 34.6308Q34.4118 34.6407 34.7377 34.6886Q35.0637 34.7365 35.3819 34.8218Q35.7001 34.907 36.0064 35.0285Q36.3126 35.15 36.6027 35.3061Q36.8928 35.4622 37.163 35.6508Q37.4331 35.8394 37.6796 36.058L37.6814 36.0597Q37.7553 36.1252 37.8195 36.2003Q37.8837 36.2754 37.9369 36.3586Q37.9902 36.4418 38.0315 36.5315Q38.0728 36.6212 38.1013 36.7158Q38.1299 36.8103 38.1451 36.9079Q38.1604 37.0055 38.1621 37.1043Q38.1638 37.203 38.1518 37.3011Q38.1399 37.3991 38.1146 37.4946Q38.0893 37.5901 38.0511 37.6812Q38.0129 37.7723 37.9626 37.8573Q37.9122 37.9422 37.8506 38.0195Q37.7891 38.0967 37.7174 38.1647Q37.6458 38.2327 37.5655 38.2902Q37.4852 38.3478 37.3978 38.3937Q37.3103 38.4396 37.2174 38.4731Q37.1245 38.5065 37.0278 38.5269L37.0175 38.529Q36.6945 38.597 36.3658 38.627Q36.0371 38.6569 35.7071 38.6484Q35.3771 38.6399 35.0504 38.5931Q34.7237 38.5463 34.4046 38.4618Q34.0855 38.3772 33.7785 38.2561Q33.4714 38.1351 33.1805 37.9791Q32.8896 37.8231 32.6189 37.6343Q32.3481 37.4456 32.1011 37.2266L29.9522 35.321L32.7739 34.7436ZM50.6937 49.2983L50.6959 49.2994Q50.8729 49.3879 51.0434 49.4884Q51.2139 49.589 51.377 49.7011Q51.5402 49.8132 51.6952 49.9363Q51.8501 50.0594 51.9962 50.1929Q52.1424 50.3264 52.2789 50.4697Q52.4154 50.613 52.5417 50.7654Q52.668 50.9179 52.7834 51.0786Q52.8989 51.2394 53.0029 51.4078Q53.107 51.5761 53.1992 51.7513Q53.2913 51.9265 53.3712 52.1076Q53.451 52.2887 53.5181 52.4749Q53.5853 52.6611 53.6393 52.8515Q53.6934 53.0419 53.7342 53.2356Q53.775 53.4292 53.8023 53.6253Q53.8296 53.8213 53.8433 54.0188Q53.857 54.2162 53.857 54.4142Q53.857 54.6121 53.8433 54.8096Q53.8296 55.007 53.8023 55.203Q53.775 55.3991 53.7342 55.5928Q53.6934 55.7864 53.6393 55.9768Q53.5853 56.1672 53.5181 56.3534Q53.451 56.5396 53.3712 56.7208Q53.2913 56.9019 53.1992 57.077Q53.107 57.2522 53.0029 57.4206Q52.8989 57.5889 52.7834 57.7497Q52.668 57.9105 52.5417 58.0629Q52.4154 58.2153 52.2789 58.3586Q52.1424 58.5019 51.9963 58.6354Q51.8501 58.769 51.6952 58.8921Q51.5402 59.0152 51.377 59.1273Q51.2139 59.2393 51.0434 59.3399Q50.8729 59.4404 50.6959 59.529L50.6936 59.5301Q50.1005 59.8266 49.4912 60.0883Q48.882 60.35 48.2585 60.576Q47.6351 60.802 46.9996 60.9915Q46.3642 61.1809 45.7188 61.3333Q45.0734 61.4856 44.4203 61.6003Q43.7672 61.7151 43.1085 61.7918Q42.4499 61.8684 41.7878 61.9069Q41.1258 61.9453 40.4627 61.9453Q39.7996 61.9453 39.1376 61.9069Q38.4756 61.8684 37.8169 61.7918Q37.1583 61.7151 36.5052 61.6003Q35.852 61.4856 35.2067 61.3333Q34.5613 61.1809 33.9258 60.9914Q33.2904 60.802 32.6669 60.576Q32.0435 60.35 31.4342 60.0883Q30.8249 59.8266 30.2318 59.5301L20 54.4142L30.2318 49.2983Q30.8249 49.0017 31.4342 48.74Q32.0435 48.4783 32.6669 48.2523Q33.2904 48.0264 33.9258 47.8369Q34.5613 47.6474 35.2067 47.4951Q35.852 47.3427 36.5052 47.228Q37.1583 47.1133 37.8169 47.0366Q38.4756 46.9599 39.1376 46.9215Q39.7996 46.8831 40.4627 46.8831Q41.1258 46.8831 41.7878 46.9215Q42.4499 46.9599 43.1085 47.0366Q43.7672 47.1133 44.4203 47.228Q45.0734 47.3427 45.7188 47.4951Q46.3642 47.6474 46.9996 47.8369Q47.6351 48.0264 48.2585 48.2523Q48.882 48.4783 49.4913 48.74Q50.1005 49.0017 50.6937 49.2983ZM37.8097 72.7654L37.8079 72.7671Q37.5614 72.9856 37.2913 73.1742Q37.0211 73.3629 36.731 73.519Q36.4409 73.675 36.1347 73.7965Q35.8284 73.918 35.5102 74.0033Q35.192 74.0886 34.866 74.1365Q34.5401 74.1844 34.2108 74.1942Q33.8815 74.2041 33.5532 74.1758Q33.225 74.1476 32.9022 74.0815L30.0805 73.5041L32.2294 71.5985Q32.4764 71.3795 32.7472 71.1908Q33.0179 71.002 33.3088 70.846Q33.5997 70.69 33.9068 70.5689Q34.2138 70.4479 34.5329 70.3633Q34.852 70.2788 35.1787 70.232Q35.5054 70.1851 35.8354 70.1766Q36.1654 70.1681 36.4941 70.1981Q36.8228 70.228 37.1458 70.296L37.1561 70.2982Q37.2528 70.3186 37.3457 70.352Q37.4386 70.3855 37.5261 70.4314Q37.6135 70.4773 37.6938 70.5348Q37.7741 70.5924 37.8457 70.6604Q37.9173 70.7284 37.9789 70.8056Q38.0405 70.8829 38.0909 70.9678Q38.1412 71.0528 38.1794 71.1439Q38.2176 71.235 38.2429 71.3305Q38.2682 71.4259 38.2801 71.524Q38.292 71.622 38.2904 71.7208Q38.2887 71.8196 38.2734 71.9172Q38.2581 72.0147 38.2296 72.1093Q38.2011 72.2039 38.1598 72.2936Q38.1185 72.3833 38.0652 72.4665Q38.012 72.5497 37.9478 72.6248Q37.8836 72.6999 37.8097 72.7654ZM59.0558 83.0477L59.0544 83.0498Q58.6891 83.6032 58.2923 84.1344Q57.8955 84.6657 57.4686 85.1731Q57.0417 85.6805 56.5861 86.1623Q56.1305 86.6441 55.6478 87.0987Q55.1651 87.5533 54.6569 87.9792Q54.1486 88.4051 53.6166 88.8008Q53.0845 89.1966 52.5304 89.5608Q51.9763 89.9251 51.4021 90.2566Q50.8278 90.5882 50.2354 90.8859Q49.6429 91.1836 49.0341 91.4465Q48.4254 91.7094 47.8024 91.9366Q47.1795 92.1638 46.5444 92.3546Q45.9094 92.5453 45.2643 92.6989Q44.6193 92.8526 43.9664 92.9686Q43.3135 93.0846 42.655 93.1626Q41.9966 93.2406 41.3347 93.2803L29.9162 93.9657L36.219 84.4197Q36.5843 83.8663 36.9811 83.3351Q37.3779 82.8038 37.8048 82.2964Q38.2317 81.789 38.6873 81.3072Q39.1429 80.8254 39.6256 80.3708Q40.1083 79.9162 40.6165 79.4903Q41.1248 79.0644 41.6568 78.6687Q42.1889 78.2729 42.743 77.9087Q43.297 77.5444 43.8713 77.2129Q44.4455 76.8813 45.038 76.5836Q45.6305 76.2859 46.2393 76.023Q46.848 75.7601 47.471 75.5329Q48.0939 75.3057 48.729 75.1149Q49.364 74.9242 50.0091 74.7706Q50.6541 74.6169 51.307 74.5009Q51.9599 74.3849 52.6183 74.3069Q53.2768 74.2289 53.9387 74.1892L53.9412 74.189Q54.1388 74.1772 54.3367 74.179Q54.5346 74.1808 54.7319 74.1963Q54.9292 74.2119 55.125 74.241Q55.3208 74.2701 55.5141 74.3127Q55.7074 74.3552 55.8972 74.4111Q56.0871 74.4669 56.2727 74.5358Q56.4583 74.6046 56.6386 74.6861Q56.819 74.7676 56.9933 74.8614Q57.1676 74.9552 57.335 75.0608Q57.5023 75.1664 57.662 75.2833Q57.8217 75.4002 57.973 75.5279Q58.1242 75.6556 58.2662 75.7935Q58.4082 75.9313 58.5404 76.0786Q58.6726 76.226 58.7942 76.3821Q58.9159 76.5382 59.0265 76.7023Q59.1371 76.8665 59.236 77.0379Q59.335 77.2093 59.4218 77.3871Q59.5087 77.565 59.5831 77.7484Q59.6575 77.9318 59.719 78.1199Q59.7805 78.3081 59.8288 78.5Q59.8772 78.6919 59.9122 78.8867Q59.9471 79.0815 59.9685 79.2783Q59.99 79.475 59.9977 79.6728Q60.0055 79.8706 59.9995 80.0684Q59.9936 80.2663 59.974 80.4632Q59.9544 80.6601 59.9212 80.8553Q59.8881 81.0504 59.8415 81.2428Q59.7949 81.4351 59.7352 81.6238Q59.6754 81.8125 59.6027 81.9966Q59.5301 82.1807 59.4448 82.3593Q59.3596 82.538 59.2622 82.7103Q59.1649 82.8826 59.0558 83.0477Z" id="New-shape-Union" fill="#18C5FF" fill-rule="evenodd" stroke="#F2F2F2" stroke-width="2" />
    <path d="M53.0013 18.0393L58.2032 25.918Q58.3122 26.0831 58.4096 26.2554Q58.507 26.4278 58.5922 26.6064Q58.6774 26.785 58.7501 26.9691Q58.8228 27.1532 58.8825 27.3419Q58.9423 27.5306 58.9889 27.7229Q59.0355 27.9153 59.0686 28.1104Q59.1018 28.3056 59.1214 28.5025Q59.141 28.6994 59.1469 28.8973Q59.1529 29.0951 59.1451 29.2929Q59.1373 29.4907 59.1159 29.6874Q59.0945 29.8842 59.0595 30.079Q59.0246 30.2738 58.9762 30.4657Q58.9279 30.6576 58.8663 30.8458Q58.8048 31.0339 58.7305 31.2173Q58.6561 31.4007 58.5692 31.5786Q58.4824 31.7564 58.3834 31.9278Q58.2844 32.0992 58.1739 32.2634Q58.0633 32.4275 57.9416 32.5836Q57.82 32.7397 57.6878 32.8871Q57.5556 33.0344 57.4136 33.1722Q57.2716 33.3101 57.1203 33.4378Q56.9691 33.5655 56.8094 33.6824Q56.6497 33.7993 56.4823 33.9049Q56.3149 34.0105 56.1407 34.1043Q55.9664 34.1981 55.786 34.2796Q55.6056 34.3611 55.4201 34.4299Q55.2345 34.4988 55.0446 34.5546Q54.8547 34.6105 54.6615 34.653Q54.4682 34.6956 54.2724 34.7247Q54.0766 34.7538 53.8793 34.7694Q53.682 34.7849 53.4841 34.7867Q53.2862 34.7885 53.0886 34.7767L43.6645 34.211Q43.4329 34.1971 43.2045 34.1565Q42.976 34.1159 42.7538 34.0492Q42.5316 33.9824 42.3186 33.8904Q42.1056 33.7984 41.9046 33.6824Q41.7037 33.5664 41.5175 33.4279Q41.3313 33.2895 41.1624 33.1304Q40.9935 32.9713 40.8441 32.7938Q40.6948 32.6162 40.5669 32.4226L29.0636 15L49.9037 16.2509Q50.1353 16.2648 50.3637 16.3054Q50.5922 16.346 50.8144 16.4127Q51.0366 16.4795 51.2496 16.5715Q51.4626 16.6635 51.6636 16.7795Q51.8645 16.8955 52.0507 17.034Q52.2368 17.1724 52.4058 17.3315Q52.5747 17.4906 52.724 17.6681Q52.8734 17.8457 53.0013 18.0393ZM37.6814 36.0428L36.3032 34.8207Q36.1291 34.6663 35.9241 34.556Q35.7191 34.4457 35.4943 34.3854Q35.2695 34.3252 35.0368 34.3182Q34.8042 34.3113 34.5762 34.3579L29.9522 35.3041L33.4783 38.4309Q33.6535 38.5863 33.8599 38.6969Q34.0662 38.8076 34.2926 38.8676Q34.519 38.9275 34.7531 38.9336Q34.9872 38.9396 35.2163 38.8914L37.0278 38.51Q37.1245 38.4897 37.2174 38.4562Q37.3103 38.4228 37.3978 38.3768Q37.4852 38.3309 37.5655 38.2734Q37.6458 38.2159 37.7174 38.1479Q37.7891 38.0798 37.8506 38.0026Q37.9122 37.9254 37.9626 37.8404Q38.0129 37.7554 38.0511 37.6643Q38.0893 37.5733 38.1146 37.4778Q38.1399 37.3823 38.1518 37.2842Q38.1638 37.1862 38.1621 37.0874Q38.1604 36.9887 38.1451 36.8911Q38.1299 36.7935 38.1013 36.6989Q38.0728 36.6044 38.0315 36.5147Q37.9902 36.4249 37.9369 36.3417Q37.8837 36.2585 37.8195 36.1834Q37.7553 36.1084 37.6814 36.0428ZM42.2511 45.0602L50.6959 49.2825Q50.8729 49.3711 51.0434 49.4716Q51.2139 49.5721 51.377 49.6842Q51.5402 49.7963 51.6952 49.9194Q51.8501 50.0425 51.9962 50.1761Q52.1424 50.3096 52.2789 50.4529Q52.4154 50.5962 52.5417 50.7486Q52.668 50.901 52.7834 51.0618Q52.8989 51.2225 53.0029 51.3909Q53.107 51.5593 53.1992 51.7345Q53.2913 51.9096 53.3712 52.0907Q53.451 52.2718 53.5181 52.458Q53.5853 52.6442 53.6393 52.8346Q53.6934 53.025 53.7342 53.2187Q53.775 53.4124 53.8023 53.6084Q53.8296 53.8045 53.8433 54.0019Q53.857 54.1994 53.857 54.3973Q53.857 54.5953 53.8433 54.7927Q53.8296 54.9902 53.8023 55.1862Q53.775 55.3822 53.7342 55.5759Q53.6934 55.7696 53.6393 55.96Q53.5853 56.1504 53.5181 56.3366Q53.451 56.5228 53.3712 56.7039Q53.2913 56.885 53.1992 57.0602Q53.107 57.2354 53.0029 57.4037Q52.8989 57.5721 52.7834 57.7329Q52.668 57.8936 52.5417 58.046Q52.4154 58.1984 52.2789 58.3418Q52.1424 58.4851 51.9962 58.6186Q51.8501 58.7521 51.6951 58.8752Q51.5402 58.9983 51.377 59.1104Q51.2139 59.2225 51.0434 59.323Q50.8729 59.4236 50.6959 59.5121L42.2511 63.7345Q42.0436 63.8382 41.8255 63.9173Q41.6073 63.9964 41.3815 64.0497Q41.1557 64.103 40.9252 64.1298Q40.6948 64.1567 40.4627 64.1567Q40.2307 64.1567 40.0002 64.1298Q39.7698 64.103 39.5439 64.0497Q39.3181 63.9964 39.1 63.9173Q38.8819 63.8382 38.6743 63.7345L20 54.3973L38.6743 45.0602Q38.8819 44.9564 39.1 44.8773Q39.3181 44.7983 39.5439 44.7449Q39.7698 44.6916 40.0002 44.6648Q40.2307 44.638 40.4627 44.638Q40.6948 44.638 40.9252 44.6648Q41.1557 44.6916 41.3815 44.7449Q41.6073 44.7983 41.8255 44.8773Q42.0436 44.9564 42.2511 45.0602ZM36.4315 73.9707Q36.2574 74.1251 36.0524 74.2354Q35.8474 74.3457 35.6226 74.4059Q35.3978 74.4662 35.1651 74.4732Q34.9325 74.4801 34.7045 74.4335L30.0805 73.4872L33.6066 70.3605Q33.7818 70.2051 33.9882 70.0945Q34.1946 69.9838 34.4209 69.9238Q34.6473 69.8638 34.8814 69.8578Q35.1155 69.8518 35.3446 69.9L37.1561 70.2814Q37.2528 70.3017 37.3457 70.3352Q37.4386 70.3686 37.5261 70.4145Q37.6135 70.4605 37.6938 70.518Q37.7741 70.5755 37.8457 70.6435Q37.9174 70.7115 37.9789 70.7888Q38.0405 70.866 38.0909 70.951Q38.1412 71.0359 38.1794 71.1271Q38.2176 71.2181 38.2429 71.3136Q38.2682 71.4091 38.2801 71.5071Q38.292 71.6052 38.2904 71.7039Q38.2887 71.8027 38.2734 71.9003Q38.2581 71.9979 38.2296 72.0924Q38.2011 72.187 38.1598 72.2767Q38.1185 72.3665 38.0652 72.4497Q38.012 72.5329 37.9478 72.6079Q37.8836 72.683 37.8097 72.7486L36.4315 73.9707ZM50.7563 92.698Q50.9879 92.6841 51.2163 92.6435Q51.4448 92.6029 51.667 92.5361Q51.8892 92.4694 52.1022 92.3774Q52.3152 92.2854 52.5162 92.1694Q52.7171 92.0534 52.9033 91.9149Q53.0895 91.7764 53.2584 91.6174Q53.4273 91.4583 53.5767 91.2807Q53.726 91.1032 53.8539 90.9096L59.0558 83.0309Q59.1649 82.8657 59.2622 82.6934Q59.3596 82.5211 59.4448 82.3425Q59.5301 82.1638 59.6027 81.9798Q59.6754 81.7956 59.7352 81.607Q59.7949 81.4183 59.8415 81.2259Q59.8881 81.0336 59.9212 80.8384Q59.9544 80.6433 59.974 80.4463Q59.9936 80.2494 59.9995 80.0516Q60.0055 79.8537 59.9977 79.656Q59.99 79.4582 59.9685 79.2614Q59.9471 79.0647 59.9122 78.8699Q59.8772 78.6751 59.8288 78.4831Q59.7805 78.2912 59.719 78.1031Q59.6575 77.915 59.5831 77.7315Q59.5087 77.5481 59.4218 77.3703Q59.335 77.1925 59.236 77.021Q59.1371 76.8496 59.0265 76.6855Q58.9159 76.5213 58.7942 76.3652Q58.6726 76.2091 58.5404 76.0618Q58.4083 75.9145 58.2662 75.7766Q58.1242 75.6388 57.973 75.5111Q57.8217 75.3834 57.662 75.2665Q57.5024 75.1495 57.335 75.0439Q57.1676 74.9383 56.9933 74.8445Q56.819 74.7508 56.6386 74.6693Q56.4583 74.5878 56.2727 74.5189Q56.0871 74.4501 55.8972 74.3942Q55.7074 74.3384 55.5141 74.2958Q55.3208 74.2532 55.125 74.2241Q54.9292 74.195 54.7319 74.1795Q54.5346 74.164 54.3367 74.1622Q54.1388 74.1603 53.9412 74.1722L44.5171 74.7378Q44.2855 74.7517 44.0571 74.7923Q43.8286 74.8329 43.6064 74.8997Q43.3842 74.9664 43.1712 75.0584Q42.9582 75.1504 42.7572 75.2664Q42.5563 75.3824 42.3701 75.5209Q42.1839 75.6594 42.015 75.8185Q41.8461 75.9775 41.6967 76.1551Q41.5474 76.3326 41.4195 76.5262L29.9162 93.9489L50.7563 92.698Z" id="New-shape-Union-2" fill="#18C5FF" fill-rule="evenodd" stroke="#F2F2F2" stroke-width="2" />
    <path d="M126.999 18.0393L121.797 25.918Q121.688 26.0831 121.59 26.2554Q121.493 26.4278 121.408 26.6064Q121.323 26.785 121.25 26.9691Q121.177 27.1532 121.118 27.3419Q121.058 27.5306 121.011 27.7229Q120.965 27.9153 120.931 28.1104Q120.898 28.3056 120.879 28.5025Q120.859 28.6994 120.853 28.8973Q120.847 29.0951 120.855 29.2929Q120.863 29.4907 120.884 29.6874Q120.906 29.8842 120.941 30.079Q120.976 30.2738 121.024 30.4657Q121.072 30.6576 121.134 30.8458Q121.195 31.0339 121.27 31.2173Q121.344 31.4007 121.431 31.5786Q121.518 31.7564 121.617 31.9278Q121.716 32.0992 121.826 32.2634Q121.937 32.4275 122.058 32.5836Q122.18 32.7397 122.312 32.8871Q122.444 33.0344 122.586 33.1722Q122.729 33.3101 122.88 33.4378Q123.031 33.5655 123.191 33.6824Q123.35 33.7993 123.518 33.9049Q123.685 34.0105 123.859 34.1043Q124.034 34.1981 124.214 34.2796Q124.394 34.3611 124.58 34.4299Q124.766 34.4988 124.955 34.5546Q125.145 34.6105 125.339 34.653Q125.532 34.6956 125.728 34.7247Q125.923 34.7538 126.121 34.7694Q126.318 34.7849 126.516 34.7867Q126.714 34.7885 126.911 34.7767L136.336 34.211Q136.567 34.1971 136.796 34.1565Q137.024 34.1159 137.246 34.0492Q137.468 33.9824 137.682 33.8904Q137.895 33.7984 138.095 33.6824Q138.296 33.5664 138.483 33.4279Q138.669 33.2895 138.838 33.1304Q139.007 32.9713 139.156 32.7938Q139.305 32.6162 139.433 32.4226L150.936 15L130.096 16.2509Q129.865 16.2648 129.636 16.3054Q129.408 16.346 129.186 16.4127Q128.963 16.4795 128.75 16.5715Q128.537 16.6635 128.336 16.7795Q128.136 16.8955 127.949 17.034Q127.763 17.1724 127.594 17.3315Q127.425 17.4906 127.276 17.6681Q127.127 17.8457 126.999 18.0393ZM142.319 36.0428L143.697 34.8207Q143.871 34.6663 144.076 34.556Q144.281 34.4457 144.506 34.3854Q144.731 34.3252 144.963 34.3182Q145.196 34.3113 145.424 34.3579L150.048 35.3041L146.522 38.4309Q146.347 38.5863 146.14 38.6969Q145.934 38.8076 145.707 38.8676Q145.481 38.9275 145.247 38.9336Q145.013 38.9396 144.784 38.8914L142.972 38.51Q142.876 38.4897 142.783 38.4562Q142.69 38.4228 142.602 38.3768Q142.515 38.3309 142.435 38.2734Q142.354 38.2159 142.283 38.1479Q142.211 38.0798 142.149 38.0026Q142.088 37.9254 142.037 37.8404Q141.987 37.7554 141.949 37.6643Q141.911 37.5733 141.885 37.4778Q141.86 37.3823 141.848 37.2842Q141.836 37.1862 141.838 37.0874Q141.84 36.9887 141.855 36.8911Q141.87 36.7935 141.899 36.6989Q141.927 36.6044 141.969 36.5147Q142.01 36.4249 142.063 36.3417Q142.116 36.2585 142.181 36.1834Q142.245 36.1084 142.319 36.0428ZM137.749 45.0602L129.304 49.2825Q129.127 49.3711 128.957 49.4716Q128.786 49.5721 128.623 49.6842Q128.46 49.7963 128.305 49.9194Q128.15 50.0425 128.004 50.1761Q127.858 50.3096 127.721 50.4529Q127.585 50.5962 127.458 50.7486Q127.332 50.901 127.217 51.0618Q127.101 51.2225 126.997 51.3909Q126.893 51.5593 126.801 51.7345Q126.709 51.9096 126.629 52.0907Q126.549 52.2718 126.482 52.458Q126.415 52.6442 126.361 52.8346Q126.307 53.025 126.266 53.2187Q126.225 53.4124 126.198 53.6084Q126.17 53.8045 126.157 54.0019Q126.143 54.1994 126.143 54.3973Q126.143 54.5953 126.157 54.7927Q126.17 54.9902 126.198 55.1862Q126.225 55.3822 126.266 55.5759Q126.307 55.7696 126.361 55.96Q126.415 56.1504 126.482 56.3366Q126.549 56.5228 126.629 56.7039Q126.709 56.885 126.801 57.0602Q126.893 57.2354 126.997 57.4037Q127.101 57.5721 127.217 57.7329Q127.332 57.8936 127.458 58.046Q127.585 58.1984 127.721 58.3418Q127.858 58.4851 128.004 58.6186Q128.15 58.7521 128.305 58.8752Q128.46 58.9983 128.623 59.1104Q128.786 59.2225 128.957 59.323Q129.127 59.4236 129.304 59.5121L137.749 63.7345Q137.956 63.8382 138.175 63.9173Q138.393 63.9964 138.619 64.0497Q138.844 64.103 139.075 64.1298Q139.305 64.1567 139.537 64.1567Q139.769 64.1567 140 64.1298Q140.23 64.103 140.456 64.0497Q140.682 63.9964 140.9 63.9173Q141.118 63.8382 141.326 63.7345L160 54.3973L141.326 45.0602Q141.118 44.9564 140.9 44.8773Q140.682 44.7983 140.456 44.7449Q140.23 44.6916 140 44.6648Q139.769 44.638 139.537 44.638Q139.305 44.638 139.075 44.6648Q138.844 44.6916 138.619 44.7449Q138.393 44.7983 138.175 44.8773Q137.956 44.9564 137.749 45.0602ZM143.569 73.9707Q143.743 74.1251 143.948 74.2354Q144.153 74.3457 144.377 74.4059Q144.602 74.4662 144.835 74.4732Q145.068 74.4801 145.296 74.4335L149.92 73.4872L146.393 70.3605Q146.218 70.2051 146.012 70.0945Q145.806 69.9838 145.579 69.9238Q145.353 69.8638 145.119 69.8578Q144.885 69.8518 144.655 69.9L142.844 70.2814Q142.747 70.3017 142.654 70.3352Q142.561 70.3686 142.474 70.4145Q142.387 70.4605 142.306 70.518Q142.226 70.5755 142.154 70.6435Q142.083 70.7115 142.021 70.7888Q141.96 70.866 141.909 70.951Q141.859 71.0359 141.821 71.1271Q141.782 71.2181 141.757 71.3136Q141.732 71.4091 141.72 71.5071Q141.708 71.6052 141.71 71.7039Q141.711 71.8027 141.727 71.9003Q141.742 71.9979 141.77 72.0924Q141.799 72.187 141.84 72.2767Q141.882 72.3665 141.935 72.4497Q141.988 72.5329 142.052 72.6079Q142.116 72.683 142.19 72.7486L143.569 73.9707ZM129.244 92.698Q129.012 92.6841 128.784 92.6435Q128.555 92.6029 128.333 92.5361Q128.111 92.4694 127.898 92.3774Q127.685 92.2854 127.484 92.1694Q127.283 92.0534 127.097 91.9149Q126.911 91.7764 126.742 91.6174Q126.573 91.4583 126.423 91.2807Q126.274 91.1032 126.146 90.9096L120.944 83.0309Q120.835 82.8657 120.738 82.6934Q120.64 82.5211 120.555 82.3425Q120.47 82.1638 120.397 81.9798Q120.325 81.7956 120.265 81.607Q120.205 81.4183 120.159 81.2259Q120.112 81.0336 120.079 80.8384Q120.046 80.6433 120.026 80.4463Q120.006 80.2494 120.001 80.0516Q119.995 79.8537 120.002 79.656Q120.01 79.4582 120.032 79.2614Q120.053 79.0647 120.088 78.8699Q120.123 78.6751 120.171 78.4831Q120.22 78.2912 120.281 78.1031Q120.343 77.915 120.417 77.7315Q120.491 77.5481 120.578 77.3703Q120.665 77.1925 120.764 77.021Q120.863 76.8496 120.974 76.6855Q121.084 76.5213 121.206 76.3652Q121.327 76.2091 121.46 76.0618Q121.592 75.9145 121.734 75.7766Q121.876 75.6388 122.027 75.5111Q122.178 75.3834 122.338 75.2665Q122.498 75.1495 122.665 75.0439Q122.832 74.9383 123.007 74.8445Q123.181 74.7508 123.361 74.6693Q123.542 74.5878 123.727 74.5189Q123.913 74.4501 124.103 74.3942Q124.293 74.3384 124.486 74.2958Q124.679 74.2532 124.875 74.2241Q125.071 74.195 125.268 74.1795Q125.465 74.164 125.663 74.1622Q125.861 74.1603 126.059 74.1722L135.483 74.7378Q135.715 74.7517 135.943 74.7923Q136.171 74.8329 136.394 74.8997Q136.616 74.9664 136.829 75.0584Q137.042 75.1504 137.243 75.2664Q137.444 75.3824 137.63 75.5209Q137.816 75.6594 137.985 75.8185Q138.154 75.9775 138.303 76.1551Q138.453 76.3326 138.581 76.5262L150.084 93.9489L129.244 92.698Z" id="New-shape-Union-3" fill="#18C5FF" fill-rule="evenodd" stroke="#F2F2F2" stroke-width="2" />
  </g>
</svg>